<svg width="1116" height="375" viewBox="0 0 1116 375" fill="none" xmlns="http://www.w3.org/2000/svg">
<mask id="mask0_34_3318" style="mask-type:alpha" maskUnits="userSpaceOnUse" x="0" y="0" width="1116" height="375">
<path d="M1116 375H74.1396L96.0352 371.3C123.166 366.714 147.2 359.692 167.706 349.849C188.908 339.672 206.218 325.601 218.448 307.212L218.449 307.213C231.138 288.26 236.714 265.698 236.714 240.985V58H79.4951V129.92H158.499V242.964C158.499 255.974 155.411 264.363 151.121 270.041L151.031 270.159L150.943 270.279C145.798 277.268 138.211 283.388 127.096 288.205C114.826 293.522 100.219 297.721 83.0547 300.582L58.2412 304.717L73.3799 375H0V0H1116V375ZM98.959 346.394C98.7315 346.437 98.5035 346.479 98.2754 346.521C98.5035 346.479 98.7315 346.437 98.959 346.394ZM101.274 345.945C100.942 346.011 100.609 346.075 100.275 346.14C100.609 346.075 100.942 346.011 101.274 345.945ZM103.479 345.504C103.181 345.565 102.882 345.624 102.583 345.685C102.882 345.624 103.181 345.565 103.479 345.504ZM105.794 345.022C105.445 345.096 105.095 345.169 104.744 345.242C105.095 345.169 105.445 345.096 105.794 345.022ZM107.879 344.573C107.635 344.627 107.391 344.679 107.146 344.731C107.391 344.679 107.635 344.627 107.879 344.573ZM110.188 344.059C109.875 344.13 109.561 344.199 109.247 344.27C109.561 344.199 109.875 344.13 110.188 344.059ZM112.261 343.58C111.985 343.645 111.708 343.708 111.431 343.772C111.708 343.708 111.985 343.645 112.261 343.58ZM114.479 343.05C114.197 343.118 113.915 343.185 113.633 343.253C113.915 343.185 114.197 343.118 114.479 343.05ZM116.597 342.526C116.284 342.605 115.97 342.683 115.655 342.761C115.97 342.683 116.284 342.605 116.597 342.526ZM118.71 341.987C118.408 342.066 118.106 342.143 117.803 342.221C118.106 342.143 118.408 342.066 118.71 341.987ZM120.903 341.408C120.54 341.506 120.175 341.603 119.81 341.699C120.175 341.603 120.54 341.506 120.903 341.408ZM122.956 340.848C122.587 340.95 122.217 341.051 121.846 341.152C122.217 341.051 122.587 340.95 122.956 340.848ZM125.036 340.262C124.64 340.375 124.242 340.488 123.843 340.601C124.242 340.488 124.64 340.375 125.036 340.262ZM126.996 339.692C126.65 339.795 126.302 339.896 125.954 339.997C126.302 339.896 126.65 339.795 126.996 339.692ZM128.975 339.099C128.651 339.197 128.327 339.295 128.002 339.393C128.327 339.295 128.651 339.197 128.975 339.099ZM131.007 338.471C130.67 338.577 130.332 338.682 129.993 338.787C130.332 338.682 130.67 338.577 131.007 338.471ZM133.015 337.829C132.644 337.949 132.272 338.07 131.898 338.188C132.272 338.07 132.644 337.949 133.015 337.829ZM134.906 337.207C134.572 337.319 134.237 337.43 133.9 337.541C134.237 337.43 134.572 337.319 134.906 337.207ZM136.947 336.515C136.559 336.649 136.169 336.783 135.777 336.915C136.169 336.783 136.559 336.649 136.947 336.515ZM138.646 335.922C138.329 336.034 138.012 336.146 137.693 336.257C138.012 336.146 138.329 336.034 138.646 335.922ZM140.431 335.28C140.184 335.37 139.937 335.461 139.688 335.551C139.937 335.461 140.184 335.37 140.431 335.28ZM142.383 334.559C142.1 334.665 141.817 334.772 141.532 334.877C141.817 334.772 142.1 334.665 142.383 334.559ZM144.271 333.839C143.957 333.96 143.643 334.082 143.327 334.202C143.643 334.082 143.957 333.96 144.271 333.839ZM146.326 333.03C145.934 333.187 145.541 333.344 145.146 333.499C145.541 333.344 145.934 333.187 146.326 333.03ZM148.195 332.271C147.761 332.45 147.326 332.629 146.888 332.806C147.326 332.629 147.761 332.451 148.195 332.271ZM149.875 331.567C149.489 331.731 149.102 331.897 148.712 332.059C149.102 331.897 149.489 331.731 149.875 331.567ZM151.334 330.942C151.044 331.068 150.754 331.194 150.462 331.319C150.754 331.194 151.044 331.068 151.334 330.942ZM157.32 328.212L155.624 329.015C155.055 329.28 154.481 329.543 153.904 329.805C154.481 329.543 155.054 329.28 155.623 329.015L157.32 328.212ZM162.267 325.709V325.71V325.709ZM168.512 322.143C169.52 321.526 170.511 320.898 171.485 320.26C170.511 320.898 169.52 321.526 168.512 322.143ZM123.986 315.117C123.011 315.452 122.027 315.781 121.035 316.104C122.027 315.781 123.011 315.452 123.986 315.117ZM136.638 310.227C134.839 311.006 133.007 311.762 131.142 312.492V312.491C132.075 312.126 132.999 311.754 133.915 311.377C134.831 311 135.739 310.616 136.638 310.227ZM565.644 54C551.215 54 536.995 57.3998 523.169 63.498L522.676 57.957H451V123.859C448.276 105.832 440.48 89.762 426.736 77.0498L426.737 77.0479C408.844 60.2499 384.172 54.0001 357.256 54C346.47 54 335.355 55.0497 323.949 57.0625C312.086 59.156 299.766 62.6451 287.037 67.3691L265.023 75.54L288.531 143.391L311.304 135.337C320.125 132.217 327.902 130.156 334.693 128.992L334.856 128.964L335.021 128.934C342.456 127.553 348.24 126.999 352.579 126.999C363.828 126.999 369.208 129.334 371.556 131.041L371.721 131.162L371.889 131.279C371.935 131.312 372.171 131.404 372.551 132.317C372.564 132.348 372.576 132.381 372.589 132.414H369.845C338.736 132.414 311.16 137.955 290.277 152.261C268.075 167.47 257 190.114 257 217.022C257 240.018 264.334 260.731 280.585 276.625C297.005 292.684 318.529 299.473 342.148 299.473C357.426 299.473 372.005 296.715 385.538 290.824L385.646 290.777L385.755 290.729C389.786 288.926 393.636 286.868 397.299 284.563C398.55 285.598 399.858 286.588 401.227 287.527L401.359 287.619L401.494 287.709C411.007 294.051 421.708 297.763 433.06 299.266L452.457 301.833L454.714 295.337H529.215V141.555C530.718 139.829 532.425 138.044 534.355 136.205L534.365 136.195C537.746 132.971 541.568 130.278 545.912 128.098C549.148 126.524 552.513 125.74 556.291 125.74C559.16 125.74 561.058 125.986 562.195 126.229C562.4 126.823 562.654 127.719 562.882 128.991L562.887 129.022L562.893 129.054C563.967 134.962 564.664 143.789 564.664 156.054V295.337H642.878V133.753C642.878 112.549 637.707 92.6548 624.361 77.166L624.362 77.165C624.344 77.1436 624.325 77.1229 624.307 77.1016C624.289 77.0806 624.271 77.059 624.253 77.0381L624.252 77.0391C609.583 59.9506 588.027 54 565.644 54ZM945.73 54C929.24 54 913.729 56.4095 899.66 61.8438C899.631 61.8549 899.602 61.8668 899.572 61.8779C899.529 61.8945 899.486 61.9111 899.443 61.9277C885.773 67.1282 873.863 75.0544 864.776 86.1914L863.886 87.3047L863.871 87.3242C854.259 99.6277 849.791 114.136 849.791 129.616C849.791 144.413 853.415 158.863 862.706 170.899L862.786 171.003L862.867 171.105C871.1 181.533 881.953 189.273 894.336 194.846L894.5 194.92L894.665 194.991C905.851 199.825 918.532 203.923 932.535 207.394C945.461 210.625 953.225 213.446 957.163 215.488C958.507 216.185 959.363 216.746 959.862 217.113C960.026 217.706 960.218 218.754 960.218 220.439C960.218 220.591 960.209 220.704 960.202 220.783C960.012 221.006 959.519 221.505 958.456 222.2C955.311 224.217 948.963 226.474 937.098 226.474C928.743 226.474 921.301 225.104 914.569 222.555C907.165 219.577 900.869 215.844 895.512 211.437L877.43 196.562L835.08 245.527V223.46H781.665V58H646.642V129.92H703.45V223.46H645V295.38H835.08V257.483L847.271 268.062C857.691 277.103 870.052 284.402 883.921 290.227L884.054 290.282L884.188 290.337C899.906 296.718 917.774 299.473 937.098 299.473C952.867 299.473 968.082 297.305 982.627 292.841L982.698 292.819L982.769 292.797C998.431 287.883 1012.15 279.785 1023.04 268.054L1023.09 267.991L1023.15 267.928C1035.58 254.33 1040.95 237.273 1040.95 219.001C1040.95 203.813 1037.6 189.045 1028.94 176.548C1021.18 165.365 1010.69 156.876 998.368 150.774C987.505 145.343 975.215 140.935 961.72 137.386C949.367 134.038 940.315 131.149 934.191 128.753C933.323 128.395 932.548 128.051 931.858 127.727C931.974 127.699 932.094 127.672 932.218 127.645C935.287 126.964 939.801 126.459 946.09 126.459C956.327 126.459 963.738 127.83 968.956 129.787L969.094 129.839L969.231 129.889C976.06 132.355 982.149 135.467 987.583 139.181L1007.87 153.046L1046.83 93.0264L1028.74 79.5928C1018.49 71.9813 1006.55 66.0285 993.352 61.4434L993.351 61.4443C978.937 56.2774 962.908 54 945.73 54ZM200.604 290.539C200.566 290.602 200.528 290.665 200.49 290.729C200.528 290.665 200.566 290.602 200.604 290.539ZM202.186 287.75C202.135 287.844 202.084 287.937 202.033 288.03C202.084 287.937 202.135 287.844 202.186 287.75ZM168.24 287.127C168.67 286.598 169.093 286.065 169.507 285.524C169.093 286.065 168.67 286.598 168.24 287.127ZM202.558 287.052C202.487 287.186 202.415 287.32 202.344 287.454C202.415 287.32 202.487 287.186 202.558 287.052ZM202.928 286.339C202.85 286.491 202.771 286.642 202.692 286.793C202.771 286.642 202.85 286.491 202.928 286.339ZM203.246 285.71C203.194 285.814 203.141 285.918 203.088 286.022C203.141 285.918 203.194 285.814 203.246 285.71ZM203.665 284.861C203.61 284.975 203.555 285.088 203.499 285.201C203.555 285.088 203.61 284.975 203.665 284.861ZM203.965 284.237C203.905 284.363 203.845 284.487 203.785 284.612C203.845 284.487 203.905 284.363 203.965 284.237ZM204.328 283.462C204.27 283.588 204.211 283.715 204.152 283.841C204.211 283.715 204.27 283.588 204.328 283.462ZM204.985 281.997C204.923 282.14 204.861 282.283 204.798 282.425C204.861 282.283 204.923 282.14 204.985 281.997ZM205.271 281.339C205.238 281.414 205.206 281.49 205.174 281.565C205.206 281.49 205.238 281.414 205.271 281.339ZM205.613 280.522C205.561 280.648 205.51 280.774 205.457 280.899C205.51 280.774 205.561 280.648 205.613 280.522ZM205.967 279.655C205.891 279.844 205.815 280.033 205.738 280.221C205.815 280.033 205.891 279.844 205.967 279.655ZM206.186 279.099C206.139 279.216 206.093 279.334 206.047 279.451C206.093 279.334 206.139 279.216 206.186 279.099ZM206.569 278.104C206.499 278.29 206.428 278.475 206.356 278.66C206.428 278.475 206.499 278.29 206.569 278.104ZM206.842 277.371C206.772 277.561 206.701 277.751 206.63 277.94C206.701 277.751 206.772 277.561 206.842 277.371ZM207.078 276.715C207.02 276.877 206.962 277.038 206.903 277.199C206.962 277.038 207.02 276.877 207.078 276.715ZM207.332 275.99C207.285 276.127 207.238 276.264 207.19 276.4C207.238 276.264 207.285 276.127 207.332 275.99ZM935.497 275.466C934.971 275.461 934.446 275.454 933.925 275.444C934.446 275.454 934.971 275.461 935.497 275.466ZM933.69 275.438C933.245 275.43 932.802 275.42 932.36 275.408C932.802 275.42 933.245 275.43 933.69 275.438ZM940.819 275.425C940.661 275.429 940.503 275.432 940.345 275.436C940.503 275.432 940.661 275.429 940.819 275.425ZM932.161 275.401C931.704 275.388 931.25 275.374 930.797 275.357C931.25 275.374 931.704 275.388 932.161 275.401ZM942.007 275.39C941.924 275.392 941.842 275.394 941.76 275.396C941.842 275.394 941.924 275.392 942.007 275.39ZM930.644 275.351C930.208 275.334 929.774 275.317 929.342 275.297C929.774 275.317 930.208 275.334 930.644 275.351ZM943.227 275.343C943.163 275.345 943.1 275.348 943.037 275.351C943.1 275.348 943.163 275.345 943.227 275.343ZM944.486 275.284C944.351 275.291 944.215 275.297 944.079 275.304C944.215 275.297 944.351 275.291 944.486 275.284ZM928.768 275.268C928.444 275.251 928.121 275.236 927.799 275.218C928.121 275.236 928.444 275.251 928.768 275.268ZM945.763 275.213C945.559 275.225 945.356 275.237 945.152 275.248C945.356 275.237 945.559 275.225 945.763 275.213ZM927.225 275.183C926.934 275.165 926.644 275.148 926.355 275.129C926.644 275.148 926.934 275.165 927.225 275.183ZM946.968 275.134C946.751 275.149 946.534 275.163 946.317 275.177C946.534 275.163 946.751 275.149 946.968 275.134ZM925.741 275.086C925.428 275.064 925.117 275.042 924.806 275.019C925.117 275.042 925.428 275.064 925.741 275.086ZM948.099 275.051C947.959 275.062 947.82 275.072 947.681 275.082C947.82 275.072 947.959 275.062 948.099 275.051ZM924.387 274.984C924.047 274.957 923.708 274.931 923.371 274.901C923.708 274.931 924.047 274.957 924.387 274.984ZM949.35 274.948C949.206 274.961 949.062 274.972 948.918 274.984C949.062 274.972 949.206 274.961 949.35 274.948ZM950.519 274.842C950.379 274.855 950.24 274.868 950.101 274.881C950.24 274.868 950.379 274.855 950.519 274.842ZM922.809 274.85C922.522 274.824 922.235 274.798 921.95 274.771C922.235 274.798 922.522 274.824 922.809 274.85ZM207.976 274.062C208.124 273.598 208.27 273.131 208.411 272.662C208.27 273.131 208.124 273.598 207.976 274.062ZM951.722 274.721C951.612 274.732 951.502 274.743 951.393 274.754C951.502 274.743 951.612 274.732 951.722 274.721ZM921.291 274.703C921.031 274.677 920.772 274.65 920.514 274.622C920.772 274.65 921.031 274.677 921.291 274.703ZM355.728 274.516C355.407 274.562 355.086 274.607 354.764 274.65C355.086 274.607 355.407 274.562 355.728 274.516ZM953.004 274.58C952.794 274.604 952.583 274.627 952.372 274.65C952.583 274.627 952.794 274.604 953.004 274.58ZM919.986 274.563C919.653 274.526 919.32 274.489 918.989 274.449C919.32 274.489 919.653 274.526 919.986 274.563ZM954.019 274.46C953.944 274.469 953.87 274.477 953.796 274.486C953.87 274.477 953.944 274.469 954.019 274.46ZM918.622 274.403C918.301 274.364 917.981 274.324 917.662 274.282C917.981 274.324 918.301 274.364 918.622 274.403ZM955.312 274.295C955.174 274.313 955.036 274.332 954.898 274.35C955.036 274.332 955.174 274.313 955.312 274.295ZM917.118 274.21C916.831 274.171 916.545 274.132 916.26 274.092C916.545 274.132 916.831 274.171 917.118 274.21ZM956.428 274.143C956.337 274.155 956.247 274.167 956.156 274.18C956.247 274.167 956.337 274.155 956.428 274.143ZM957.767 273.946C957.58 273.975 957.392 274.003 957.205 274.03C957.392 274.003 957.58 273.975 957.767 273.946ZM915.759 274.019C915.453 273.974 915.149 273.929 914.846 273.882C915.149 273.929 915.453 273.974 915.759 274.019ZM958.925 273.765C958.727 273.797 958.529 273.828 958.331 273.859C958.529 273.828 958.727 273.797 958.925 273.765ZM914.386 273.811C914.112 273.767 913.84 273.723 913.568 273.678C913.84 273.723 914.112 273.767 914.386 273.811ZM959.969 273.592C959.844 273.613 959.72 273.634 959.596 273.654C959.72 273.634 959.844 273.613 959.969 273.592ZM912.936 273.571C912.692 273.53 912.449 273.487 912.207 273.444C912.449 273.487 912.692 273.53 912.936 273.571ZM961.153 273.385C961.03 273.407 960.907 273.429 960.784 273.451C960.907 273.429 961.03 273.407 961.153 273.385ZM911.618 273.338C911.365 273.291 911.112 273.244 910.86 273.196C911.112 273.244 911.365 273.291 911.618 273.338ZM962.183 273.195C962.117 273.208 962.051 273.22 961.985 273.232C962.051 273.22 962.117 273.208 962.183 273.195ZM910.335 273.096C910.038 273.038 909.743 272.978 909.448 272.918C909.743 272.978 910.038 273.038 910.335 273.096ZM909.056 272.838C908.779 272.78 908.504 272.721 908.229 272.662C908.504 272.721 908.779 272.78 909.056 272.838ZM964.617 272.713C964.498 272.738 964.378 272.764 964.259 272.788C964.378 272.764 964.498 272.738 964.617 272.713ZM965.762 272.469C965.646 272.494 965.529 272.52 965.413 272.545C965.529 272.52 965.646 272.494 965.762 272.469ZM907.65 272.535C907.427 272.486 907.204 272.435 906.981 272.384C907.204 272.435 907.427 272.486 907.65 272.535ZM967 272.192C966.839 272.229 966.679 272.266 966.518 272.302C966.679 272.266 966.839 272.229 967 272.192ZM906.393 272.248C906.131 272.186 905.87 272.124 905.609 272.061C905.87 272.124 906.131 272.186 906.393 272.248ZM968.293 271.889C968.09 271.937 967.887 271.986 967.684 272.034C967.887 271.986 968.09 271.937 968.293 271.889ZM905.178 271.955C904.915 271.89 904.654 271.823 904.394 271.756C904.654 271.823 904.915 271.89 905.178 271.955ZM969.395 271.618C969.182 271.671 968.97 271.724 968.758 271.776C968.97 271.724 969.182 271.671 969.395 271.618ZM369.117 271.411H369.116H369.117ZM903.849 271.615C903.635 271.559 903.422 271.501 903.21 271.443C903.422 271.501 903.635 271.559 903.849 271.615ZM970.847 271.246C970.549 271.324 970.251 271.402 969.952 271.479C970.251 271.402 970.549 271.324 970.847 271.246ZM902.602 271.277C902.414 271.225 902.227 271.172 902.041 271.119C902.227 271.172 902.414 271.225 902.602 271.277ZM971.971 270.944C971.654 271.031 971.338 271.117 971.021 271.201C971.338 271.117 971.654 271.031 971.971 270.944ZM901.364 270.925C901.159 270.865 900.955 270.803 900.751 270.742C900.955 270.803 901.159 270.865 901.364 270.925ZM972.66 270.753C972.501 270.797 972.343 270.843 972.184 270.887C972.343 270.843 972.501 270.797 972.66 270.753ZM373.065 270.008H373.064H373.065ZM900.189 270.573C899.931 270.494 899.674 270.412 899.417 270.331C899.674 270.412 899.931 270.494 900.189 270.573ZM899.009 270.201C898.666 270.091 898.325 269.978 897.986 269.864C898.325 269.978 898.666 270.091 899.009 270.201ZM897.858 269.821C897.561 269.721 897.266 269.618 896.972 269.515C897.266 269.618 897.561 269.721 897.858 269.821ZM976.718 269.533C976.466 269.616 976.213 269.696 975.959 269.777C976.213 269.696 976.466 269.616 976.718 269.533ZM977.181 269.378C977.027 269.43 976.873 269.482 976.718 269.533C976.873 269.482 977.027 269.43 977.181 269.378ZM896.64 269.399C896.285 269.274 895.932 269.145 895.581 269.016C895.932 269.145 896.285 269.274 896.64 269.399ZM892.097 267.625C892.467 267.784 892.84 267.942 893.215 268.1C893.965 268.404 894.725 268.699 895.494 268.984C894.725 268.699 893.965 268.404 893.215 268.1C892.84 267.942 892.467 267.784 892.097 267.625ZM978.904 268.78C978.787 268.822 978.669 268.864 978.552 268.905C978.669 268.864 978.787 268.822 978.904 268.78ZM980.024 268.368C979.786 268.458 979.545 268.546 979.305 268.634C979.545 268.546 979.786 268.458 980.024 268.368ZM981.077 267.964C980.83 268.061 980.582 268.156 980.333 268.251C980.582 268.156 980.83 268.061 981.077 267.964ZM982.073 267.565C981.938 267.621 981.802 267.674 981.666 267.729C981.802 267.674 981.938 267.621 982.073 267.565ZM983.13 267.125C983.016 267.173 982.902 267.221 982.787 267.27C982.902 267.221 983.016 267.173 983.13 267.125ZM984.174 266.672C984.03 266.735 983.886 266.798 983.742 266.86C983.886 266.798 984.03 266.735 984.174 266.672ZM985.23 266.193C985.054 266.275 984.877 266.354 984.7 266.435C984.877 266.354 985.054 266.275 985.23 266.193ZM986.215 265.729C986.046 265.811 985.875 265.891 985.705 265.971C985.875 265.891 986.046 265.811 986.215 265.729ZM987.241 265.227C987.059 265.317 986.876 265.406 986.693 265.496C986.876 265.406 987.059 265.317 987.241 265.227ZM988.229 264.724C988.029 264.827 987.829 264.929 987.628 265.031C987.829 264.929 988.029 264.827 988.229 264.724ZM989.225 264.195C989.023 264.304 988.82 264.412 988.616 264.52C988.82 264.412 989.023 264.304 989.225 264.195ZM883.899 263.784C884.355 264.017 884.813 264.248 885.275 264.477C884.813 264.248 884.355 264.017 883.899 263.784ZM990.182 263.668C989.966 263.789 989.75 263.908 989.532 264.027C989.75 263.908 989.966 263.789 990.182 263.668ZM387.549 262.227C386.997 262.618 386.44 263.001 385.875 263.376C386.44 263.001 386.997 262.618 387.549 262.227ZM991.071 263.16C990.89 263.266 990.707 263.371 990.524 263.475C990.707 263.37 990.89 263.266 991.071 263.16ZM881.53 262.545C882.031 262.814 882.537 263.08 883.046 263.345C882.876 263.256 882.705 263.169 882.536 263.08L881.53 262.545ZM992.009 262.604C991.844 262.704 991.678 262.803 991.512 262.901C991.678 262.803 991.844 262.704 992.009 262.604ZM210.85 262.541C210.836 262.614 210.823 262.688 210.81 262.761C210.823 262.688 210.836 262.614 210.85 262.541ZM993.005 261.992C992.803 262.119 992.601 262.244 992.397 262.368C992.601 262.244 992.803 262.119 993.005 261.992ZM878.579 260.905C878.901 261.09 879.226 261.274 879.552 261.457L880.535 262.004C879.876 261.641 879.224 261.276 878.579 260.905ZM298.927 260.933C299.264 261.237 299.606 261.535 299.951 261.83C299.606 261.535 299.264 261.237 298.927 260.933ZM993.902 261.418C993.69 261.556 993.476 261.694 993.261 261.83C993.476 261.694 993.69 261.556 993.902 261.418ZM994.712 260.882C994.539 260.998 994.365 261.114 994.19 261.229C994.365 261.114 994.539 260.998 994.712 260.882ZM211.149 260.833C211.136 260.914 211.123 260.995 211.109 261.075C211.123 260.995 211.136 260.914 211.149 260.833ZM995.598 260.275C995.44 260.386 995.281 260.496 995.122 260.604C995.281 260.496 995.44 260.386 995.598 260.275ZM996.418 259.693C996.275 259.797 996.132 259.9 995.987 260.002C996.132 259.9 996.275 259.797 996.418 259.693ZM997.345 259.012C997.187 259.13 997.03 259.248 996.871 259.364C997.03 259.248 997.187 259.13 997.345 259.012ZM211.416 259.159C211.41 259.199 211.405 259.239 211.398 259.279C211.405 259.239 211.41 259.199 211.416 259.159ZM998.194 258.363C998.012 258.505 997.83 258.646 997.646 258.785C997.83 258.646 998.012 258.505 998.194 258.363ZM294.909 256.901C295.272 257.306 295.642 257.705 296.019 258.101C295.494 257.55 294.982 256.992 294.485 256.424L294.909 256.901ZM999.121 257.629C998.925 257.787 998.729 257.945 998.531 258.101C998.729 257.945 998.925 257.787 999.121 257.629ZM211.67 257.363C211.657 257.461 211.644 257.558 211.631 257.655C211.644 257.558 211.657 257.461 211.67 257.363ZM999.866 257.018C999.672 257.18 999.477 257.341 999.28 257.501C999.477 257.341 999.672 257.18 999.866 257.018ZM1000.59 256.401C1000.45 256.528 1000.3 256.654 1000.15 256.779C1000.3 256.654 1000.45 256.528 1000.59 256.401ZM1001.44 255.661C1001.27 255.808 1001.11 255.954 1000.94 256.099C1001.11 255.954 1001.27 255.808 1001.44 255.661ZM211.979 254.82C211.934 255.225 211.888 255.628 211.84 256.029C211.888 255.628 211.934 255.225 211.979 254.82ZM293.53 255.302C293.636 255.43 293.743 255.557 293.851 255.684C293.762 255.579 293.673 255.475 293.586 255.37L293.53 255.302ZM1002.27 254.905C1002.08 255.077 1001.9 255.248 1001.71 255.418C1001.9 255.248 1002.08 255.077 1002.27 254.905ZM1003.17 254.048C1002.94 254.27 1002.71 254.49 1002.48 254.708C1002.71 254.49 1002.94 254.27 1003.17 254.048ZM443.582 254.251L443.092 254.091C442.967 254.049 442.844 254.007 442.721 253.964C443.004 254.062 443.291 254.158 443.582 254.251ZM212.18 252.84C212.14 253.27 212.099 253.7 212.055 254.127C212.099 253.7 212.14 253.27 212.18 252.84ZM1004.71 252.502C1004.23 253.007 1003.73 253.502 1003.23 253.989C1003.48 253.747 1003.73 253.504 1003.97 253.258L1004.71 252.502ZM292.432 253.926C292.376 253.854 292.32 253.781 292.265 253.709C292.32 253.781 292.376 253.854 292.432 253.926ZM291.428 252.581C291.651 252.891 291.879 253.199 292.109 253.504C291.879 253.199 291.651 252.891 291.428 252.581ZM340.289 251.741C340.617 251.794 340.949 251.844 341.283 251.891C342.621 252.078 344.006 252.218 345.439 252.312C343.648 252.194 341.931 252.005 340.288 251.741H340.289ZM212.339 250.964C212.303 251.436 212.265 251.905 212.224 252.373C212.265 251.905 212.303 251.436 212.339 250.964ZM1008.09 248.526C1007.27 249.633 1006.38 250.703 1005.44 251.733C1006.38 250.703 1007.27 249.633 1008.09 248.526ZM290.76 251.632C290.718 251.571 290.675 251.51 290.634 251.449C290.675 251.51 290.718 251.571 290.76 251.632ZM290.501 251.253C290.411 251.12 290.322 250.986 290.233 250.853C290.322 250.986 290.411 251.12 290.501 251.253ZM336.491 250.968L336.49 250.969L336.491 250.968ZM290.085 250.625C290.016 250.52 289.948 250.415 289.88 250.31C289.948 250.415 290.016 250.52 290.085 250.625ZM212.469 249.08C212.439 249.569 212.408 250.056 212.372 250.541C212.408 250.056 212.439 249.569 212.469 249.08ZM947.405 249.969C946.999 250.011 946.591 250.05 946.179 250.087L946.18 250.086C946.591 250.049 947 250.01 947.405 249.968V249.969ZM289.685 250.002C289.615 249.891 289.545 249.781 289.476 249.67C289.545 249.781 289.615 249.891 289.685 250.002ZM289.3 249.385C289.245 249.295 289.19 249.206 289.136 249.116C289.19 249.206 289.245 249.295 289.3 249.385ZM433.994 248.914C434.16 249.072 434.331 249.226 434.504 249.379C434.331 249.226 434.16 249.072 433.994 248.914ZM955.483 248.695C954.756 248.853 954.016 249.001 953.265 249.138C954.016 249.001 954.756 248.853 955.483 248.695ZM329.755 248.579L330.534 248.939C330.009 248.705 329.495 248.46 328.993 248.202C329.244 248.331 329.498 248.456 329.755 248.579ZM288.922 248.759C288.864 248.661 288.806 248.564 288.749 248.466C288.806 248.564 288.864 248.661 288.922 248.759ZM212.585 246.91C212.559 247.506 212.527 248.099 212.493 248.689C212.527 248.099 212.559 247.506 212.585 246.91ZM433.638 248.564C433.576 248.503 433.514 248.441 433.454 248.379L433.41 248.332C433.485 248.41 433.561 248.487 433.638 248.564ZM288.579 248.172C288.529 248.086 288.48 248 288.431 247.913C288.48 248 288.529 248.086 288.579 248.172ZM1008.7 247.688C1008.61 247.817 1008.52 247.945 1008.42 248.073C1008.52 247.945 1008.61 247.817 1008.7 247.688ZM372.658 247.459H372.657H372.658ZM288.261 247.611C288.21 247.52 288.159 247.429 288.108 247.338C288.159 247.429 288.21 247.52 288.261 247.611ZM432.621 247.452C432.666 247.506 432.711 247.558 432.757 247.611C432.717 247.565 432.676 247.519 432.637 247.472L432.621 247.452ZM326.817 246.964L327.524 247.395C327.047 247.113 326.581 246.82 326.127 246.516C326.354 246.668 326.584 246.817 326.817 246.964ZM1009.29 246.833C1009.2 246.974 1009.1 247.113 1009 247.252C1009.1 247.113 1009.2 246.974 1009.29 246.833ZM912.657 247.178C912.468 247.124 912.278 247.07 912.089 247.015C912.278 247.07 912.468 247.124 912.657 247.178ZM287.919 246.99C287.856 246.874 287.794 246.757 287.731 246.641C287.794 246.757 287.856 246.874 287.919 246.99ZM212.652 245.062C212.635 245.65 212.614 246.235 212.589 246.817C212.614 246.235 212.635 245.65 212.652 245.062ZM1009.87 245.954C1009.77 246.11 1009.66 246.264 1009.56 246.418C1009.66 246.264 1009.77 246.11 1009.87 245.954ZM431.271 245.574C431.371 245.74 431.473 245.901 431.577 246.059C431.473 245.901 431.371 245.74 431.271 245.574ZM908.997 246.043C908.821 245.984 908.644 245.926 908.469 245.865C908.644 245.926 908.821 245.984 908.997 246.043ZM903.135 243.789C903.721 244.042 904.312 244.291 904.907 244.535C905.205 244.657 905.504 244.778 905.804 244.898C906.629 245.214 907.46 245.516 908.296 245.805C907.46 245.516 906.629 245.214 905.804 244.898C904.905 244.539 904.015 244.169 903.135 243.789ZM287.271 245.756C287.226 245.666 287.181 245.576 287.136 245.485C287.181 245.576 287.226 245.666 287.271 245.756ZM323.548 244.549H323.547H323.548ZM1010.42 245.062C1010.32 245.221 1010.22 245.377 1010.13 245.534C1010.22 245.377 1010.32 245.221 1010.42 245.062ZM286.978 245.165C286.918 245.043 286.858 244.921 286.799 244.799C286.858 244.921 286.918 245.043 286.978 245.165ZM1010.94 244.166C1010.84 244.342 1010.74 244.517 1010.63 244.691C1010.74 244.517 1010.84 244.342 1010.94 244.166ZM286.395 243.939C286.332 243.803 286.27 243.665 286.208 243.527C286.27 243.665 286.332 243.803 286.395 243.939ZM1011.43 243.277C1011.34 243.437 1011.25 243.595 1011.17 243.753C1011.25 243.595 1011.34 243.437 1011.43 243.277ZM321.449 242.474C321.747 242.81 322.051 243.139 322.365 243.46C322.051 243.14 321.747 242.81 321.449 242.474ZM286.131 243.356C286.076 243.233 286.021 243.109 285.967 242.984C286.021 243.109 286.076 243.233 286.131 243.356ZM1011.9 242.367C1011.83 242.511 1011.75 242.655 1011.68 242.798C1011.75 242.655 1011.83 242.511 1011.9 242.367ZM285.811 242.62C285.752 242.483 285.694 242.346 285.637 242.209C285.694 242.346 285.752 242.483 285.811 242.62ZM897.967 241.391C898.528 241.67 899.094 241.946 899.664 242.217C899.094 241.946 898.528 241.67 897.967 241.391ZM285.586 242.087C285.518 241.922 285.45 241.756 285.383 241.59C285.45 241.756 285.518 241.922 285.586 242.087ZM1012.38 241.371C1012.31 241.534 1012.23 241.697 1012.15 241.858C1012.23 241.697 1012.31 241.534 1012.38 241.371ZM285.296 241.371C285.247 241.247 285.198 241.123 285.149 240.998C285.198 241.123 285.247 241.247 285.296 241.371ZM1012.82 240.409C1012.74 240.596 1012.66 240.782 1012.57 240.968C1012.66 240.782 1012.74 240.596 1012.82 240.409ZM285.017 240.654C284.969 240.529 284.922 240.404 284.875 240.278C284.922 240.404 284.969 240.529 285.017 240.654ZM893.026 238.752C893.563 239.059 894.104 239.36 894.648 239.658C894.104 239.36 893.563 239.059 893.026 238.752ZM1013.23 239.445C1013.15 239.645 1013.07 239.844 1012.98 240.042C1013.07 239.844 1013.15 239.645 1013.23 239.445ZM284.781 240.025C284.742 239.919 284.704 239.812 284.665 239.705C284.704 239.812 284.742 239.919 284.781 240.025ZM284.503 239.25C284.48 239.184 284.457 239.118 284.434 239.052C284.457 239.118 284.48 239.184 284.503 239.25ZM1013.62 238.479C1013.55 238.669 1013.47 238.858 1013.4 239.046C1013.47 238.858 1013.55 238.669 1013.62 238.479ZM284.304 238.672C284.267 238.563 284.231 238.455 284.195 238.346C284.231 238.455 284.267 238.563 284.304 238.672ZM1013.99 237.472C1013.93 237.662 1013.86 237.851 1013.79 238.039C1013.86 237.851 1013.93 237.662 1013.99 237.472ZM284.087 238.016C284.043 237.881 284 237.745 283.957 237.609C284 237.745 284.043 237.881 284.087 238.016ZM283.86 237.301C283.815 237.153 283.769 237.006 283.725 236.857C283.769 237.006 283.815 237.153 283.86 237.301ZM1014.33 236.484C1014.27 236.665 1014.21 236.845 1014.15 237.024C1014.21 236.845 1014.27 236.665 1014.33 236.484ZM428.475 236.37C428.498 236.557 428.521 236.742 428.546 236.926C428.521 236.742 428.498 236.557 428.475 236.37ZM283.671 236.678C283.631 236.543 283.591 236.407 283.552 236.271C283.591 236.407 283.631 236.543 283.671 236.678ZM888.314 235.874H888.313H888.314ZM1014.67 235.417C1014.61 235.615 1014.55 235.813 1014.49 236.01C1014.55 235.813 1014.61 235.615 1014.67 235.417ZM283.458 235.946C283.426 235.834 283.395 235.722 283.364 235.609C283.395 235.722 283.426 235.834 283.458 235.946ZM1014.97 234.382C1014.92 234.581 1014.86 234.78 1014.8 234.978C1014.86 234.78 1014.92 234.581 1014.97 234.382ZM428.287 234.519C428.295 234.618 428.304 234.718 428.312 234.816C428.307 234.756 428.301 234.696 428.296 234.636L428.287 234.519ZM283.073 234.519C283.043 234.402 283.014 234.284 282.984 234.167C283.014 234.284 283.043 234.402 283.073 234.519ZM1015.27 233.291C1015.21 233.511 1015.15 233.73 1015.09 233.948C1015.15 233.73 1015.21 233.511 1015.27 233.291ZM428.119 230.674C428.128 231.535 428.155 232.369 428.198 233.175C428.167 232.586 428.143 231.982 428.13 231.364L428.119 230.674ZM282.729 233.102C282.696 232.962 282.665 232.823 282.634 232.683C282.665 232.823 282.696 232.962 282.729 233.102ZM1015.53 232.211C1015.48 232.435 1015.42 232.657 1015.37 232.879C1015.42 232.657 1015.48 232.435 1015.53 232.211ZM282.588 232.479C282.553 232.32 282.519 232.16 282.485 232C282.519 232.16 282.553 232.32 282.588 232.479ZM1015.74 231.258C1015.7 231.437 1015.66 231.615 1015.62 231.793C1015.66 231.615 1015.7 231.437 1015.74 231.258ZM282.264 230.905C282.24 230.783 282.217 230.661 282.194 230.539C282.217 230.661 282.24 230.783 282.264 230.905ZM1015.95 230.183C1015.92 230.34 1015.9 230.498 1015.86 230.654C1015.9 230.498 1015.92 230.34 1015.95 230.183ZM1016.17 228.968C1016.13 229.174 1016.1 229.38 1016.06 229.585C1016.1 229.38 1016.13 229.174 1016.17 228.968ZM282 229.451C281.977 229.316 281.955 229.181 281.933 229.046C281.955 229.181 281.977 229.316 282 229.451ZM281.896 228.819C281.869 228.654 281.845 228.488 281.819 228.321C281.845 228.488 281.869 228.654 281.896 228.819ZM1016.33 227.93C1016.3 228.105 1016.28 228.281 1016.25 228.455C1016.28 228.281 1016.3 228.105 1016.33 227.93ZM373.722 217.551C371.148 220.349 368.25 222.626 364.994 224.473C359.926 227.232 354.992 228.452 349.882 228.452C342.54 228.452 339.95 226.924 339.328 226.456C338.806 225.788 337.373 223.375 337.373 216.663C337.373 210.976 338.995 208.29 341.564 206.097C343.574 204.474 351.106 200.916 370.385 200.916H373.722V217.551ZM1016.47 226.891C1016.45 227.027 1016.44 227.162 1016.42 227.298C1016.44 227.162 1016.45 227.027 1016.47 226.891ZM281.563 226.474C281.546 226.331 281.529 226.189 281.512 226.046C281.529 226.189 281.546 226.331 281.563 226.474ZM1016.61 225.677C1016.59 225.836 1016.58 225.995 1016.56 226.153C1016.58 225.995 1016.59 225.836 1016.61 225.677ZM1016.75 224.106C1016.73 224.415 1016.7 224.721 1016.68 225.026C1016.7 224.721 1016.73 224.415 1016.75 224.106ZM1016.83 222.963C1016.81 223.264 1016.8 223.565 1016.77 223.863C1016.8 223.565 1016.81 223.264 1016.83 222.963ZM313.449 219.827C313.494 220.749 313.561 221.651 313.646 222.535C313.53 221.336 313.45 220.102 313.408 218.833L313.449 219.827ZM984.168 222.127C984.162 222.222 984.153 222.317 984.146 222.412C984.154 222.308 984.163 222.205 984.169 222.101L984.168 222.127ZM314.171 208.042C313.705 210.422 313.444 212.92 313.386 215.535C313.444 212.919 313.705 210.421 314.171 208.041V208.042ZM1016.68 212.619H1016.68H1016.68ZM281.201 211.646C281.176 211.969 281.154 212.293 281.134 212.619C281.17 212.031 281.214 211.447 281.265 210.868L281.201 211.646ZM281.554 208.229C281.518 208.502 281.483 208.775 281.451 209.049C281.483 208.775 281.518 208.502 281.554 208.229ZM981.559 206.713C981.67 206.96 981.777 207.21 981.882 207.463C981.777 207.21 981.67 206.96 981.559 206.713ZM314.62 206.03C314.87 205.039 315.156 204.069 315.48 203.121C315.156 204.069 314.87 205.039 314.62 206.03ZM282.184 204.391C282.2 204.306 282.216 204.222 282.233 204.138C282.216 204.222 282.2 204.306 282.184 204.391ZM282.354 203.562C282.372 203.48 282.389 203.398 282.407 203.315C282.389 203.398 282.372 203.48 282.354 203.562ZM282.505 202.876C282.533 202.75 282.562 202.624 282.592 202.499C282.562 202.624 282.533 202.75 282.505 202.876ZM282.696 202.062C282.725 201.942 282.755 201.822 282.785 201.703C282.755 201.822 282.725 201.942 282.696 202.062ZM283.099 200.51C283.134 200.381 283.17 200.252 283.206 200.124C283.17 200.252 283.134 200.381 283.099 200.51ZM283.303 199.788C283.349 199.629 283.396 199.469 283.443 199.311C283.396 199.469 283.349 199.629 283.303 199.788ZM283.533 199.016C283.577 198.874 283.62 198.732 283.665 198.591C283.62 198.732 283.577 198.874 283.533 199.016ZM283.761 198.294C283.812 198.136 283.863 197.978 283.916 197.82C283.863 197.978 283.812 198.136 283.761 198.294ZM284.014 197.531C284.063 197.385 284.113 197.239 284.164 197.094C284.113 197.239 284.063 197.385 284.014 197.531ZM284.564 195.997C284.617 195.858 284.669 195.719 284.723 195.581C284.669 195.719 284.617 195.858 284.564 195.997ZM284.848 195.263C284.907 195.113 284.967 194.965 285.027 194.816C284.967 194.965 284.907 195.113 284.848 195.263ZM969.399 194.816H969.398H969.399ZM285.158 194.498C285.213 194.365 285.269 194.232 285.325 194.1C285.269 194.232 285.213 194.365 285.158 194.498ZM285.465 193.775C285.517 193.655 285.569 193.533 285.622 193.413C285.569 193.533 285.517 193.655 285.465 193.775ZM285.788 193.046C285.843 192.925 285.898 192.804 285.954 192.684C285.898 192.804 285.843 192.925 285.788 193.046ZM286.107 192.354C286.167 192.229 286.228 192.104 286.288 191.979C286.228 192.104 286.167 192.229 286.107 192.354ZM1009.86 191.184C1010.03 191.446 1010.19 191.711 1010.36 191.979C1010.19 191.711 1010.03 191.446 1009.86 191.184ZM287.172 190.239C287.232 190.127 287.292 190.016 287.353 189.904C287.292 190.016 287.232 190.127 287.172 190.239ZM287.524 189.592C287.593 189.468 287.663 189.344 287.732 189.221C287.663 189.344 287.593 189.468 287.524 189.592ZM288.733 187.535C288.789 187.446 288.845 187.357 288.901 187.269C288.845 187.357 288.789 187.446 288.733 187.535ZM289.146 186.883C289.218 186.772 289.291 186.662 289.363 186.552C289.291 186.662 289.218 186.772 289.146 186.883ZM289.578 186.227C289.642 186.131 289.706 186.036 289.771 185.94C289.706 186.036 289.642 186.131 289.578 186.227ZM289.991 185.618C290.087 185.479 290.185 185.341 290.282 185.203C290.185 185.341 290.087 185.479 289.991 185.618ZM940.833 184.739L940.834 184.74L940.833 184.739ZM290.454 184.961C290.523 184.864 290.593 184.768 290.663 184.672C290.593 184.768 290.523 184.864 290.454 184.961ZM291.385 183.704C291.491 183.566 291.598 183.429 291.705 183.292C291.598 183.429 291.491 183.566 291.385 183.704ZM1002.66 182.565C1002.98 182.873 1003.29 183.184 1003.61 183.498C1003.29 183.184 1002.98 182.873 1002.66 182.565ZM291.874 183.076C291.965 182.962 292.057 182.849 292.148 182.735C292.057 182.849 291.965 182.962 291.874 183.076ZM931.182 182.238L931.183 182.239L931.182 182.238ZM1001.92 181.878V181.877V181.878ZM292.856 181.877C292.946 181.771 293.036 181.666 293.126 181.562C293.036 181.666 292.946 181.771 292.856 181.877ZM924.362 180.266V180.267V180.266ZM295.165 179.328C295.119 179.376 295.072 179.423 295.025 179.471C295.072 179.423 295.119 179.376 295.165 179.328ZM995.692 176.933C996.19 177.274 996.68 177.62 997.161 177.973C997.402 178.149 997.64 178.326 997.877 178.505V178.506C997.167 177.969 996.439 177.444 995.692 176.933ZM355.885 177.591H355.884H355.885ZM370.385 176.916C369.081 176.916 367.801 176.93 366.545 176.958C365.917 176.972 365.295 176.99 364.679 177.011C363.406 177.054 362.159 177.113 360.938 177.187C363.933 177.006 367.083 176.916 370.385 176.916ZM899.274 170.54C899.74 170.79 900.21 171.039 900.687 171.282C900.21 171.039 899.74 170.79 899.274 170.54ZM896.59 169.02C896.853 169.177 897.118 169.332 897.385 169.486C897.118 169.332 896.853 169.177 896.59 169.02ZM957.738 161.164L959.997 161.795C958.504 161.37 956.985 160.954 955.441 160.55C956.213 160.752 956.979 160.957 957.738 161.164ZM950.76 159.26V159.261V159.26ZM944.223 157.378C945.457 157.744 946.726 158.112 948.028 158.485C946.726 158.112 945.457 157.744 944.223 157.378ZM881.647 156.158C881.508 155.976 881.369 155.793 881.232 155.607L881.218 155.587C881.359 155.779 881.502 155.969 881.647 156.158ZM880.652 154.791C880.536 154.622 880.42 154.453 880.307 154.282C880.42 154.453 880.536 154.622 880.652 154.791ZM880.171 154.074C880.068 153.917 879.966 153.76 879.866 153.602C879.966 153.76 880.068 153.917 880.171 154.074ZM879.64 153.232C879.579 153.133 879.517 153.034 879.457 152.934C879.517 153.034 879.579 153.133 879.64 153.232ZM929.633 152.669H929.632H929.633ZM878.831 151.84C878.775 151.738 878.719 151.637 878.664 151.535C878.719 151.637 878.775 151.738 878.831 151.84ZM878.505 151.232C878.425 151.08 878.345 150.928 878.268 150.774C878.345 150.928 878.425 151.08 878.505 151.232ZM878.108 150.453C878.048 150.33 877.986 150.206 877.927 150.082C877.986 150.206 878.048 150.33 878.108 150.453ZM877.774 149.758C877.704 149.606 877.633 149.454 877.564 149.301C877.633 149.454 877.704 149.606 877.774 149.758ZM877.422 148.979C877.367 148.854 877.312 148.728 877.259 148.603C877.312 148.728 877.367 148.854 877.422 148.979ZM877.1 148.22C877.046 148.089 876.992 147.958 876.939 147.826C876.992 147.958 877.046 148.089 877.1 148.22ZM876.794 147.455C876.74 147.315 876.686 147.175 876.634 147.034C876.686 147.175 876.74 147.315 876.794 147.455ZM876.509 146.693C876.458 146.553 876.408 146.413 876.358 146.271C876.408 146.413 876.458 146.553 876.509 146.693ZM876.218 145.861C876.174 145.731 876.13 145.6 876.087 145.469C876.13 145.6 876.174 145.731 876.218 145.861ZM875.952 145.047C875.908 144.907 875.865 144.766 875.822 144.625C875.865 144.766 875.908 144.907 875.952 145.047ZM875.702 144.22C875.669 144.106 875.636 143.992 875.604 143.877C875.636 143.992 875.669 144.106 875.702 144.22ZM875.471 143.396C875.437 143.27 875.404 143.144 875.371 143.018C875.404 143.144 875.437 143.27 875.471 143.396ZM875.253 142.551C875.218 142.411 875.185 142.271 875.151 142.13C875.185 142.271 875.218 142.411 875.253 142.551ZM875.059 141.735C875.028 141.6 874.998 141.464 874.969 141.328C874.998 141.464 875.028 141.6 875.059 141.735ZM874.866 140.848C874.838 140.713 874.812 140.578 874.785 140.442C874.812 140.578 874.838 140.713 874.866 140.848ZM874.692 139.965C874.662 139.802 874.633 139.638 874.604 139.474C874.633 139.638 874.662 139.802 874.692 139.965ZM874.543 139.124C874.516 138.962 874.49 138.798 874.464 138.635C874.49 138.798 874.516 138.962 874.543 139.124ZM874.393 138.17C874.373 138.039 874.355 137.909 874.337 137.777C874.355 137.909 874.373 138.039 874.393 138.17ZM874.271 137.299C874.245 137.107 874.222 136.913 874.199 136.72C874.222 136.913 874.245 137.107 874.271 137.299ZM874.163 136.426C874.137 136.195 874.113 135.964 874.09 135.731C874.113 135.964 874.137 136.195 874.163 136.426ZM874.064 135.485C874.043 135.265 874.024 135.044 874.005 134.821C874.024 135.044 874.043 135.265 874.064 135.485ZM505.854 132.473C505.638 132.779 505.425 133.086 505.215 133.394C505.425 133.086 505.638 132.779 505.854 132.473ZM905.397 131.45C905.383 131.358 905.368 131.266 905.354 131.173C905.368 131.266 905.383 131.358 905.397 131.45ZM618.766 128.946C618.798 129.625 618.822 130.31 618.84 131.002C618.822 130.31 618.798 129.625 618.766 128.946ZM509.346 127.889V127.888V127.889ZM618.682 127.434C618.709 127.862 618.732 128.294 618.754 128.728C618.732 128.294 618.709 127.862 618.682 127.434ZM905.112 128.557C905.109 128.472 905.104 128.387 905.102 128.302V128.286C905.105 128.377 905.108 128.467 905.112 128.557ZM618.569 125.869C618.589 126.111 618.604 126.353 618.622 126.597C618.604 126.353 618.589 126.111 618.569 125.869ZM618.437 124.396C618.448 124.518 618.459 124.639 618.471 124.761C618.459 124.639 618.448 124.518 618.437 124.396ZM618.279 122.926C618.293 123.044 618.305 123.162 618.318 123.28C618.305 123.162 618.293 123.044 618.279 122.926ZM618.092 121.435C618.112 121.582 618.129 121.73 618.148 121.878C618.129 121.73 618.112 121.582 618.092 121.435ZM617.883 119.993C617.914 120.195 617.942 120.399 617.972 120.603C617.942 120.399 617.914 120.195 617.883 119.993ZM617.646 118.556C617.693 118.826 617.737 119.098 617.781 119.371C617.737 119.098 617.693 118.826 617.646 118.556ZM617.391 117.18C617.436 117.412 617.478 117.645 617.521 117.879C617.478 117.645 617.436 117.412 617.391 117.18ZM992.727 114.214C994.177 115.009 995.602 115.836 997.001 116.694C995.602 115.836 994.177 115.009 992.727 114.214ZM617.115 115.835C617.149 115.992 617.18 116.149 617.213 116.307C617.18 116.149 617.149 115.992 617.115 115.835ZM389.458 114.894C389.644 115.089 389.826 115.288 390.005 115.49C389.826 115.288 389.644 115.089 389.458 114.894ZM616.801 114.452C616.846 114.641 616.888 114.83 616.932 115.02C616.888 114.83 616.846 114.641 616.801 114.452ZM616.476 113.145C616.533 113.364 616.587 113.585 616.642 113.806C616.587 113.585 616.533 113.364 616.476 113.145ZM306.199 111.71C305.24 112.034 304.274 112.367 303.301 112.711C304.274 112.367 305.24 112.034 306.199 111.71ZM616.145 111.922C616.154 111.954 616.162 111.986 616.171 112.018C616.162 111.986 616.154 111.954 616.145 111.922ZM384.921 111.101L385.672 111.632C385.262 111.334 384.843 111.046 384.417 110.764C384.586 110.876 384.755 110.986 384.921 111.101ZM615.745 110.569C615.765 110.634 615.786 110.699 615.806 110.764C615.786 110.699 615.765 110.634 615.745 110.569ZM913.025 110.574C913.118 110.497 913.21 110.42 913.304 110.344L913.321 110.33C913.221 110.411 913.123 110.493 913.025 110.574ZM978.993 107.91C980.061 108.314 981.118 108.731 982.163 109.163L983.723 109.822C982.688 109.376 981.643 108.944 980.586 108.526L978.993 107.91ZM615.37 109.392C615.38 109.421 615.389 109.45 615.398 109.479C615.389 109.45 615.38 109.421 615.37 109.392ZM579.535 109.164C579.612 109.245 579.687 109.328 579.763 109.41C579.671 109.31 579.579 109.212 579.486 109.114L579.535 109.164ZM577.936 107.659C578.184 107.868 578.428 108.083 578.667 108.306C578.428 108.083 578.184 107.868 577.936 107.659ZM614.927 108.105C614.943 108.151 614.959 108.197 614.976 108.242C614.959 108.197 614.943 108.151 614.927 108.105ZM576.165 106.318C576.322 106.424 576.477 106.531 576.63 106.64V106.641C576.478 106.532 576.323 106.425 576.166 106.319L576.165 106.318ZM920.722 106.083C920.18 106.293 919.655 106.512 919.147 106.74C919.655 106.512 920.18 106.293 920.722 106.083ZM972.604 105.742C973.458 105.987 974.296 106.245 975.119 106.518C974.296 106.245 973.458 105.987 972.604 105.742ZM613.984 105.655C614.018 105.737 614.052 105.82 614.086 105.902C614.052 105.82 614.018 105.737 613.984 105.655ZM613.405 104.307C613.474 104.462 613.542 104.617 613.61 104.773C613.542 104.617 613.474 104.462 613.405 104.307ZM570.088 103.504C570.721 103.7 571.333 103.912 571.922 104.141C571.333 103.912 570.721 103.7 570.088 103.504ZM613.177 103.802C613.233 103.924 613.289 104.047 613.345 104.171C613.289 104.047 613.233 103.924 613.177 103.802ZM612.915 103.242C612.968 103.354 613.021 103.465 613.073 103.577C613.021 103.465 612.968 103.354 612.915 103.242ZM347.701 103.146C346.854 103.194 345.99 103.255 345.109 103.328C345.99 103.255 346.854 103.194 347.701 103.146ZM882.23 102.823H882.229H882.23ZM938.182 102.706C936.94 102.788 935.735 102.89 934.569 103.014C935.735 102.89 936.94 102.788 938.182 102.706ZM567.435 102.807V102.808V102.807ZM547.439 102.542C547.015 102.621 546.592 102.705 546.171 102.795C546.592 102.705 547.015 102.621 547.439 102.542ZM557.184 101.745C560.132 101.781 562.834 102 565.29 102.399C564.799 102.32 564.298 102.247 563.787 102.182C563.531 102.149 563.273 102.118 563.013 102.089C562.492 102.031 561.961 101.98 561.421 101.937C561.151 101.915 560.878 101.894 560.603 101.876C559.502 101.803 558.363 101.76 557.184 101.745ZM612.32 102.03C612.387 102.161 612.452 102.292 612.518 102.423C612.452 102.292 612.387 102.161 612.32 102.03ZM552.154 101.911C551.245 101.987 550.342 102.088 549.445 102.215V102.214C550.342 102.087 551.245 101.986 552.154 101.91V101.911ZM612.063 101.532C612.129 101.658 612.194 101.784 612.259 101.91C612.194 101.784 612.129 101.658 612.063 101.532ZM554.211 101.783C553.981 101.793 553.752 101.804 553.523 101.816V101.815C553.753 101.803 553.982 101.792 554.212 101.782L554.211 101.783ZM611.814 101.062C611.858 101.143 611.901 101.224 611.943 101.305C611.901 101.224 611.858 101.143 611.814 101.062ZM611.54 100.56C611.574 100.621 611.608 100.682 611.642 100.743C611.608 100.682 611.574 100.621 611.54 100.56ZM610.818 99.2979C610.896 99.4288 610.974 99.5595 611.051 99.6914C610.974 99.5595 610.896 99.4288 610.818 99.2979ZM1012.18 97.251C1012.95 97.7799 1013.7 98.3169 1014.43 98.8623C1013.7 98.3169 1012.95 97.7799 1012.18 97.251ZM610.422 98.6416C610.453 98.6916 610.483 98.7418 610.514 98.792C610.483 98.7418 610.453 98.6916 610.422 98.6416ZM610.393 98.5918C610.403 98.6082 610.412 98.6252 610.422 98.6416C610.322 98.4795 610.223 98.3177 610.121 98.1572L610.393 98.5918ZM609.405 97.0586C609.416 97.0748 609.427 97.0912 609.438 97.1074C609.327 96.9421 609.214 96.7778 609.102 96.6143L609.405 97.0586ZM608.872 96.2861C608.948 96.3943 609.024 96.5024 609.1 96.6113C609.024 96.5024 608.948 96.3943 608.872 96.2861ZM1009.84 95.6885C1009.97 95.7709 1010.1 95.8546 1010.22 95.9375C1010.1 95.8546 1009.97 95.7709 1009.84 95.6885ZM608.054 95.1592C608.165 95.308 608.276 95.458 608.386 95.6084C608.276 95.458 608.165 95.308 608.054 95.1592ZM1009.09 95.209C1009.26 95.3126 1009.42 95.4172 1009.58 95.5215C1009.42 95.4172 1009.26 95.3126 1009.09 95.209ZM1008.32 94.7285C1008.4 94.7778 1008.48 94.8275 1008.56 94.877C1008.48 94.8275 1008.4 94.7778 1008.32 94.7285ZM607.371 94.2734C607.461 94.3869 607.55 94.5008 607.639 94.6152C607.55 94.5008 607.461 94.3869 607.371 94.2734ZM1007.47 94.207C1007.59 94.2805 1007.71 94.3549 1007.83 94.4287C1007.71 94.3549 1007.59 94.2804 1007.47 94.207ZM606.505 93.2109C606.715 93.4606 606.922 93.7133 607.127 93.9678C606.922 93.7133 606.715 93.4606 606.505 93.2109ZM1006.63 93.708C1006.77 93.7944 1006.92 93.8809 1007.07 93.9678C1006.92 93.8809 1006.77 93.7944 1006.63 93.708ZM1005.83 93.248C1005.92 93.2967 1006 93.3457 1006.09 93.3945C1006 93.3457 1005.92 93.2967 1005.83 93.248ZM408.067 92.5674C408.338 92.7915 408.604 93.0188 408.869 93.248C408.604 93.0188 408.338 92.7915 408.067 92.5674ZM1004.95 92.7441C1005.06 92.8085 1005.18 92.8738 1005.29 92.9385C1005.18 92.8738 1005.06 92.8085 1004.95 92.7441ZM605.725 92.3037C605.854 92.4503 605.982 92.5982 606.109 92.7471C605.978 92.5934 605.846 92.4413 605.712 92.29L605.725 92.3037ZM892.924 92.3652C892.813 92.4458 892.703 92.5272 892.594 92.6084C892.961 92.3367 893.332 92.0681 893.709 91.8037L892.924 92.3652ZM1004.07 92.2578C1004.24 92.3505 1004.41 92.4438 1004.58 92.5371C1004.41 92.4438 1004.24 92.3505 1004.07 92.2578ZM1003.25 91.8115C1003.39 91.8871 1003.53 91.9631 1003.67 92.0391C1003.53 91.9631 1003.39 91.8871 1003.25 91.8115ZM406.872 91.6064C406.956 91.6717 407.039 91.738 407.122 91.8037C407.039 91.738 406.956 91.6717 406.872 91.6064ZM604.903 91.4062C604.949 91.4548 604.994 91.504 605.04 91.5527C604.994 91.504 604.949 91.4548 604.903 91.4062ZM1002.43 91.376C1002.54 91.4347 1002.65 91.4937 1002.77 91.5527C1002.65 91.4937 1002.54 91.4347 1002.43 91.376ZM604.069 90.5537C604.319 90.8007 604.565 91.0514 604.808 91.3057C604.565 91.0514 604.319 90.8007 604.069 90.5537ZM1001.39 90.8369C1001.56 90.9262 1001.74 91.0156 1001.91 91.1055C1001.74 91.0156 1001.56 90.9262 1001.39 90.8369ZM405.679 90.707C405.731 90.7452 405.783 90.7839 405.835 90.8223C405.783 90.7839 405.731 90.7452 405.679 90.707ZM1000.45 90.3652C1000.68 90.4804 1000.91 90.5957 1001.14 90.7119C1000.91 90.5957 1000.68 90.4803 1000.45 90.3652ZM405.023 90.2354C405.145 90.3215 405.266 90.409 405.387 90.4961C405.266 90.409 405.145 90.3215 405.023 90.2354ZM603.64 90.1367C603.725 90.2181 603.809 90.3006 603.894 90.3828C603.809 90.3006 603.725 90.2181 603.64 90.1367ZM999.701 89.9932C999.874 90.0779 1000.05 90.1628 1000.22 90.248C1000.05 90.1628 999.874 90.0779 999.701 89.9932ZM404.418 89.8135C404.504 89.8728 404.59 89.9334 404.676 89.9932C404.59 89.9334 404.504 89.8728 404.418 89.8135ZM602.748 89.3135C602.998 89.5365 603.244 89.7636 603.487 89.9932C603.244 89.7636 602.998 89.5365 602.748 89.3135ZM998.838 89.5752C998.945 89.6266 999.052 89.6779 999.159 89.7295C999.052 89.6779 998.945 89.6266 998.838 89.5752ZM403.792 89.3916C403.876 89.4475 403.959 89.5043 404.043 89.5605C403.959 89.5043 403.876 89.4475 403.792 89.3916ZM997.735 89.0547C997.944 89.1517 998.151 89.2488 998.358 89.3467C998.151 89.2488 997.944 89.1517 997.735 89.0547ZM602.274 88.8994C602.401 89.008 602.526 89.1174 602.65 89.2275C602.526 89.1174 602.401 89.008 602.274 88.8994ZM403.133 88.96C403.239 89.0281 403.344 89.0972 403.449 89.166C403.344 89.0972 403.239 89.0281 403.133 88.96ZM996.881 88.6611C997.068 88.7463 997.254 88.8312 997.439 88.917C997.254 88.8312 997.068 88.7463 996.881 88.6611ZM402.485 88.5508C402.587 88.6141 402.688 88.6783 402.789 88.7422C402.688 88.6783 402.587 88.6141 402.485 88.5508ZM601.799 88.4971C601.806 88.503 601.813 88.5087 601.82 88.5146C601.813 88.5087 601.806 88.503 601.799 88.4971ZM601.41 88.1787C601.52 88.2673 601.629 88.3566 601.737 88.4463C601.629 88.3566 601.52 88.2673 601.41 88.1787ZM996.034 88.2783C996.159 88.3341 996.284 88.3902 996.408 88.4463C996.284 88.3902 996.159 88.3341 996.034 88.2783ZM401.853 88.1621C401.916 88.2004 401.979 88.2398 402.042 88.2783C401.979 88.2398 401.916 88.2004 401.853 88.1621ZM995.062 87.8506C995.208 87.9142 995.355 87.977 995.5 88.041C995.355 87.977 995.208 87.9142 995.062 87.8506ZM600.929 87.7969C601.009 87.8593 601.089 87.9223 601.168 87.9854C601.089 87.9223 601.009 87.8593 600.929 87.7969ZM401.107 87.7207C401.227 87.79 401.345 87.8606 401.463 87.9307C401.345 87.8606 401.227 87.79 401.107 87.7207ZM994.058 87.417C994.217 87.4849 994.376 87.5528 994.535 87.6211C994.376 87.5528 994.217 87.4849 994.058 87.417ZM400.471 87.3555C400.625 87.4426 400.779 87.5308 400.932 87.6191C400.779 87.5308 400.625 87.4426 400.471 87.3555ZM600.441 87.4238C600.508 87.474 600.574 87.5246 600.641 87.5752C600.574 87.5246 600.508 87.474 600.441 87.4238ZM599.976 87.0781C600.065 87.1434 600.154 87.2094 600.243 87.2754C600.154 87.2094 600.065 87.1434 599.976 87.0781ZM993.181 87.0479C993.317 87.1046 993.453 87.1607 993.589 87.2178C993.453 87.1607 993.317 87.1046 993.181 87.0479ZM399.77 86.9668C399.886 87.0304 400.002 87.0948 400.118 87.1592C400.002 87.0948 399.886 87.0304 399.77 86.9668ZM599.447 86.7002C599.548 86.771 599.648 86.8424 599.748 86.9141C599.648 86.8424 599.548 86.771 599.447 86.7002ZM399.07 86.5918C399.207 86.6641 399.343 86.7374 399.479 86.8105C399.343 86.7374 399.207 86.6641 399.07 86.5918ZM598.897 86.3213C599.032 86.4123 599.166 86.5042 599.299 86.5967C599.166 86.5042 599.032 86.4123 598.897 86.3213ZM986.539 84.4883C988.288 85.111 989.996 85.7569 991.661 86.4258C989.996 85.7569 988.288 85.111 986.539 84.4883ZM398.391 86.2383C398.481 86.2843 398.57 86.3315 398.66 86.3779C398.57 86.3315 398.481 86.2843 398.391 86.2383ZM598.451 86.0244C598.574 86.1047 598.695 86.1861 598.816 86.2676C598.695 86.1861 598.574 86.1047 598.451 86.0244ZM397.631 85.8574C397.77 85.9261 397.909 85.9958 398.048 86.0654C397.909 85.9958 397.77 85.9261 397.631 85.8574ZM532.921 85.4268V85.4258V85.4268ZM597.959 85.708C598.051 85.7664 598.143 85.8248 598.234 85.8838C598.143 85.8248 598.051 85.7664 597.959 85.708ZM396.938 85.5215C397.067 85.583 397.195 85.6458 397.323 85.708C397.195 85.6458 397.067 85.583 396.938 85.5215ZM906.146 85.0811C905.727 85.2527 905.313 85.4289 904.902 85.6064C905.313 85.4289 905.727 85.2527 906.146 85.0811ZM597.423 85.375C597.521 85.4347 597.618 85.4943 597.715 85.5547C597.618 85.4943 597.521 85.4347 597.423 85.375ZM396.255 85.2021C396.345 85.2435 396.434 85.2854 396.523 85.3271C396.434 85.2854 396.345 85.2435 396.255 85.2021ZM596.881 85.0498C596.988 85.1131 597.096 85.1761 597.202 85.2402C597.096 85.1761 596.988 85.1131 596.881 85.0498ZM395.507 84.8633C395.607 84.9077 395.706 84.9532 395.806 84.998C395.706 84.9532 395.607 84.9077 395.507 84.8633ZM312.294 84.3398H312.293H312.294ZM596.324 84.7275C596.441 84.7936 596.557 84.8598 596.672 84.9268C596.557 84.8598 596.441 84.7936 596.324 84.7275ZM394.759 84.5371C394.858 84.5795 394.956 84.6222 395.055 84.665C394.956 84.6222 394.858 84.5795 394.759 84.5371ZM595.762 84.4141C595.891 84.485 596.021 84.5559 596.149 84.6279C596.021 84.5559 595.891 84.485 595.762 84.4141ZM393.928 84.1875C394.067 84.2451 394.207 84.3029 394.346 84.3613C394.207 84.3029 394.067 84.2451 393.928 84.1875ZM595.184 84.1045C595.319 84.1757 595.454 84.2469 595.588 84.3193C595.454 84.2469 595.319 84.1757 595.184 84.1045ZM393.183 83.8857C393.35 83.9522 393.516 84.0194 393.682 84.0869C393.516 84.0194 393.35 83.9522 393.183 83.8857ZM594.649 83.8281C594.792 83.9007 594.935 83.9739 595.076 84.0479C594.935 83.9739 594.792 83.9007 594.649 83.8281ZM392.434 83.5928C392.566 83.6434 392.697 83.6948 392.828 83.7461C392.697 83.6948 392.566 83.6434 392.434 83.5928ZM594.161 83.585C594.259 83.6329 594.356 83.68 594.453 83.7285C594.356 83.68 594.259 83.6329 594.161 83.585ZM391.629 83.29C391.772 83.3427 391.914 83.3967 392.056 83.4502C391.914 83.3967 391.772 83.3427 391.629 83.29ZM593.516 83.2744C593.639 83.3327 593.763 83.391 593.886 83.4502C593.763 83.391 593.639 83.3327 593.516 83.2744ZM318.354 82.7529V82.752V82.7529ZM592.931 83.0039C593.065 83.0645 593.198 83.1248 593.331 83.1865C593.198 83.1248 593.065 83.0645 592.931 83.0039ZM390.824 82.999C390.97 83.0508 391.116 83.1037 391.261 83.1562C391.116 83.1037 390.97 83.0508 390.824 82.999ZM982.3 83.0371C982.41 83.0721 982.519 83.1082 982.629 83.1436C982.519 83.1082 982.41 83.0721 982.3 83.0371ZM591.658 82.4512C592.02 82.6017 592.378 82.7559 592.732 82.9141C592.378 82.7559 592.02 82.6017 591.658 82.4512ZM981.234 82.7051C981.441 82.7678 981.646 82.8325 981.851 82.8965C981.646 82.8325 981.441 82.7678 981.234 82.7051ZM390.014 82.7178C390.183 82.7756 390.353 82.8336 390.521 82.8926C390.353 82.8336 390.183 82.7756 390.014 82.7178ZM389.209 82.4492C389.373 82.503 389.537 82.5566 389.7 82.6113C389.537 82.5566 389.373 82.503 389.209 82.4492ZM914.396 82.1553H914.395H914.396ZM980.162 82.3867C980.269 82.4177 980.375 82.4501 980.481 82.4814C980.375 82.4501 980.269 82.4177 980.162 82.3867ZM589.996 81.7979C590.486 81.9801 590.97 82.1679 591.446 82.3633C590.97 82.1679 590.486 81.9801 589.996 81.7979ZM388.358 82.1758C388.546 82.2345 388.732 82.2945 388.918 82.3545C388.732 82.2945 388.546 82.2345 388.358 82.1758ZM979.043 82.0693C979.203 82.1136 979.362 82.1591 979.521 82.2041C979.362 82.1591 979.203 82.1136 979.043 82.0693ZM387.583 81.9375C387.756 81.9897 387.929 82.0424 388.101 82.0957C387.929 82.0424 387.756 81.9897 387.583 81.9375ZM977.89 81.7568C978.113 81.8158 978.336 81.8771 978.559 81.9375C978.336 81.8771 978.113 81.8158 977.89 81.7568ZM333.802 79.7803C331.925 80.0542 330.031 80.3601 328.12 80.6973C326.846 80.9221 325.561 81.1675 324.265 81.4316V81.4307C325.561 81.1665 326.846 80.9221 328.12 80.6973C330.031 80.3601 331.925 80.0542 333.802 79.7803ZM386.78 81.7002C386.91 81.7377 387.039 81.7754 387.168 81.8135C387.039 81.7754 386.91 81.7377 386.78 81.7002ZM976.814 81.4805C977.019 81.5319 977.223 81.5851 977.427 81.6377C977.223 81.5851 977.019 81.5319 976.814 81.4805ZM385.882 81.4453C386.063 81.4955 386.244 81.5463 386.425 81.5977C386.244 81.5463 386.063 81.4955 385.882 81.4453ZM589.103 81.4736C589.209 81.5108 589.314 81.5492 589.42 81.5869C589.301 81.5443 589.181 81.5018 589.062 81.46L589.103 81.4736ZM385.11 81.2373C385.244 81.2727 385.377 81.3077 385.51 81.3438C385.377 81.3077 385.244 81.2727 385.11 81.2373ZM975.706 81.21C975.849 81.244 975.991 81.2789 976.133 81.3135C975.991 81.2789 975.849 81.244 975.706 81.21ZM384.079 80.9707C384.276 81.0203 384.473 81.0703 384.669 81.1211C384.473 81.0703 384.276 81.0203 384.079 80.9707ZM974.557 80.9424C974.705 80.976 974.853 81.0107 975.001 81.0449C974.853 81.0107 974.705 80.976 974.557 80.9424ZM587.122 80.8271C587.246 80.8649 587.369 80.9039 587.492 80.9424C587.369 80.9039 587.246 80.8649 587.122 80.8271ZM383.302 80.7783C383.511 80.8286 383.718 80.88 383.926 80.9316C383.718 80.88 383.511 80.8286 383.302 80.7783ZM973.354 80.6777C973.543 80.7183 973.732 80.7593 973.921 80.8008C973.732 80.7593 973.543 80.7183 973.354 80.6777ZM586.462 80.6299C586.642 80.6821 586.82 80.7363 586.998 80.79C586.82 80.7363 586.642 80.6821 586.462 80.6299ZM382.57 80.6055C382.673 80.6292 382.775 80.6537 382.877 80.6777C382.775 80.6537 382.673 80.6292 382.57 80.6055ZM972.228 80.4424C972.402 80.4778 972.577 80.5146 972.751 80.5508C972.577 80.5146 972.402 80.4778 972.228 80.4424ZM381.525 80.3711C381.699 80.4089 381.872 80.4466 382.044 80.4854C381.872 80.4466 381.699 80.4089 381.525 80.3711ZM585.213 80.2832C585.271 80.2985 585.328 80.3146 585.386 80.3301C585.328 80.3146 585.271 80.2985 585.213 80.2832ZM971.076 80.2158C971.226 80.2445 971.376 80.2745 971.525 80.3037C971.376 80.2745 971.226 80.2445 971.076 80.2158ZM380.687 80.1924C380.858 80.228 381.029 80.2643 381.199 80.3008C381.029 80.2643 380.858 80.228 380.687 80.1924ZM584.469 80.0918C584.587 80.1214 584.704 80.1514 584.821 80.1816C584.704 80.1514 584.587 80.1214 584.469 80.0918ZM379.776 80.0078C379.947 80.0415 380.118 80.0758 380.288 80.1104C380.118 80.0758 379.947 80.0415 379.776 80.0078ZM969.887 79.9961C970.027 80.0213 970.168 80.0466 970.308 80.0723C970.168 80.0466 970.027 80.0213 969.887 79.9961ZM583.85 79.9395C583.964 79.9667 584.077 79.9946 584.19 80.0225C584.077 79.9946 583.964 79.9667 583.85 79.9395ZM378.959 79.8506C379.084 79.874 379.209 79.897 379.333 79.9209C379.209 79.897 379.084 79.874 378.959 79.8506ZM968.652 79.7812C968.826 79.8105 969 79.8402 969.173 79.8701C969 79.8402 968.826 79.8105 968.652 79.7812ZM583.198 79.7871C583.247 79.7982 583.296 79.8101 583.345 79.8213C583.296 79.8101 583.247 79.7982 583.198 79.7871ZM377.864 79.6523C378.06 79.6866 378.255 79.7205 378.449 79.7559C378.255 79.7205 378.06 79.6866 377.864 79.6523ZM967.493 79.5928C967.639 79.6157 967.784 79.6387 967.93 79.6621C967.784 79.6387 967.639 79.6157 967.493 79.5928ZM377.028 79.5088C377.206 79.5384 377.384 79.5682 377.561 79.5986C377.384 79.5682 377.206 79.5384 377.028 79.5088ZM581.65 79.4561C581.81 79.488 581.968 79.5207 582.126 79.5537C581.968 79.5207 581.81 79.488 581.65 79.4561ZM966.177 79.3936C966.366 79.4212 966.555 79.4491 966.743 79.4775C966.555 79.4491 966.366 79.4211 966.177 79.3936ZM376.093 79.3584C376.265 79.3853 376.436 79.4118 376.607 79.4395C376.436 79.4118 376.265 79.3853 376.093 79.3584ZM581.009 79.3311C581.152 79.3583 581.295 79.386 581.438 79.4141C581.295 79.386 581.152 79.3583 581.009 79.3311ZM964.89 79.2129C965.117 79.2435 965.343 79.2749 965.569 79.3066C965.343 79.2749 965.117 79.2435 964.89 79.2129ZM554.264 78.9355C553.915 78.9922 553.566 79.0515 553.217 79.1133V79.1123C553.566 79.0504 553.916 78.9913 554.265 78.9346L554.264 78.9355ZM375.236 79.2285C375.362 79.2471 375.489 79.2652 375.614 79.2842C375.489 79.2652 375.362 79.2471 375.236 79.2285ZM580.263 79.1934C580.384 79.2151 580.506 79.2375 580.627 79.2598C580.506 79.2375 580.384 79.2151 580.263 79.1934ZM374.062 79.0625C374.279 79.0918 374.495 79.1208 374.71 79.1514C374.495 79.1208 374.279 79.0918 374.062 79.0625ZM579.482 79.0596C579.657 79.0885 579.831 79.1173 580.004 79.1475C579.831 79.1173 579.657 79.0885 579.482 79.0596ZM963.733 79.0625C963.941 79.0884 964.147 79.1147 964.354 79.1416C964.147 79.1147 963.941 79.0884 963.733 79.0625ZM373.082 78.9346C373.319 78.9645 373.556 78.994 373.792 79.0254C373.556 78.994 373.319 78.9645 373.082 78.9346ZM578.828 78.9541C578.962 78.975 579.095 78.996 579.229 79.0176C579.095 78.996 578.962 78.975 578.828 78.9541ZM962.451 78.9092C962.633 78.93 962.815 78.9501 962.996 78.9717C962.815 78.9501 962.633 78.93 962.451 78.9092ZM577.983 78.8262C578.15 78.8501 578.315 78.8754 578.48 78.9004C578.315 78.8754 578.15 78.8501 577.983 78.8262ZM371.978 78.8008C372.255 78.8328 372.532 78.8654 372.808 78.8994C372.532 78.8654 372.255 78.8328 371.978 78.8008ZM343.048 78.6748V78.6738V78.6748ZM961.067 78.7578C961.321 78.7841 961.575 78.8112 961.827 78.8389C961.575 78.8112 961.321 78.7841 961.067 78.7578ZM577.248 78.7246C577.433 78.7493 577.618 78.7748 577.802 78.8008C577.618 78.7748 577.433 78.7493 577.248 78.7246ZM371.135 78.707C371.383 78.7338 371.631 78.7608 371.878 78.7891C371.631 78.7608 371.383 78.7338 371.135 78.707ZM959.896 78.6416C960.124 78.6632 960.351 78.6844 960.578 78.707C960.351 78.6844 960.124 78.6631 959.896 78.6416ZM576.647 78.6475C576.753 78.6607 576.859 78.6739 576.964 78.6875C576.859 78.6739 576.753 78.6607 576.647 78.6475ZM370.262 78.6162C370.451 78.6351 370.64 78.6541 370.828 78.6738C370.64 78.6541 370.451 78.6351 370.262 78.6162ZM367.919 78.4062C368.564 78.4575 369.204 78.5133 369.839 78.5742C369.204 78.5133 368.564 78.4575 367.919 78.4062ZM958.816 78.5439C958.921 78.553 959.026 78.562 959.131 78.5713C959.026 78.562 958.921 78.553 958.816 78.5439ZM575.248 78.4854C575.298 78.4907 575.348 78.4955 575.398 78.501C575.348 78.4955 575.298 78.4907 575.248 78.4854ZM957.297 78.4209C957.505 78.4365 957.712 78.4522 957.919 78.4688C957.712 78.4522 957.505 78.4365 957.297 78.4209ZM367.247 78.3555C367.46 78.3712 367.673 78.3866 367.885 78.4033C367.673 78.3866 367.46 78.3712 367.247 78.3555ZM955.831 78.3184C956.099 78.3357 956.366 78.3533 956.633 78.3721C956.366 78.3533 956.099 78.3357 955.831 78.3184ZM573.698 78.3359C573.742 78.3397 573.785 78.3428 573.828 78.3467C573.785 78.3428 573.742 78.3397 573.698 78.3359ZM363.854 78.1504C364.664 78.1883 365.466 78.2339 366.261 78.2861C365.466 78.2339 364.664 78.1883 363.854 78.1504ZM954.672 78.248C954.893 78.2606 955.114 78.2726 955.335 78.2861C955.114 78.2726 954.893 78.2606 954.672 78.248ZM572.108 78.2129C572.164 78.2167 572.22 78.2197 572.275 78.2236C572.22 78.2197 572.164 78.2167 572.108 78.2129ZM951.414 78.0977C951.839 78.1125 952.263 78.1292 952.685 78.1475C952.263 78.1292 951.839 78.1125 951.414 78.0977ZM363.313 78.127C363.45 78.1328 363.587 78.1383 363.724 78.1445C363.587 78.1383 363.45 78.1328 363.313 78.127ZM950.447 78.0684C950.745 78.0769 951.042 78.0845 951.339 78.0947C951.042 78.0845 950.745 78.0769 950.447 78.0684ZM358.358 78.0039C359.146 78.0097 359.928 78.0218 360.702 78.04C360.287 78.0303 359.871 78.0228 359.452 78.0166L358.358 78.0039ZM142.577 307.425C142.298 307.568 142.018 307.712 141.735 307.853C142.018 307.712 142.298 307.568 142.577 307.425ZM141.461 307.987C141.137 308.148 140.813 308.308 140.485 308.466C140.813 308.308 141.137 308.148 141.461 307.987ZM139.918 308.735C139.685 308.846 139.453 308.957 139.219 309.066C139.453 308.957 139.685 308.846 139.918 308.735ZM138.623 309.339C138.395 309.443 138.167 309.55 137.938 309.653C138.167 309.55 138.395 309.443 138.623 309.339ZM201.022 289.827C200.94 289.969 200.857 290.111 200.773 290.252C200.857 290.111 200.94 289.969 201.022 289.827ZM201.022 289.827C201.078 289.731 201.133 289.634 201.188 289.537C201.133 289.634 201.078 289.731 201.022 289.827ZM204.669 282.711C204.579 282.911 204.49 283.11 204.398 283.309C204.49 283.11 204.579 282.911 204.669 282.711ZM207.625 275.134C207.569 275.301 207.512 275.468 207.455 275.635C207.512 275.468 207.569 275.301 207.625 275.134ZM207.935 274.188C207.868 274.396 207.801 274.602 207.733 274.809C207.801 274.602 207.868 274.396 207.935 274.188ZM209.158 270.044C209.085 270.315 209.012 270.585 208.937 270.854C209.012 270.585 209.085 270.315 209.158 270.044ZM209.158 270.044C209.186 269.942 209.212 269.839 209.239 269.736C209.212 269.839 209.186 269.942 209.158 270.044ZM210.181 265.853C210.156 265.966 210.13 266.08 210.104 266.193C210.13 266.08 210.156 265.966 210.181 265.853Z" fill="#D9D9D9"/>
</mask>
<g mask="url(#mask0_34_3318)">
<mask id="mask1_34_3318" style="mask-type:alpha" maskUnits="userSpaceOnUse" x="790" y="27" width="300" height="300">
<path d="M790 177.5L940.502 27L1090 177.5L940.502 327L790 177.5Z" fill="white"/>
</mask>
<g mask="url(#mask1_34_3318)">
<path d="M783 174L783 84L1090 84L1090 174L783 174Z" fill="#C1D3FE"/>
<path d="M778.191 220.668L796.038 111.573L1125.03 165.392L1107.18 274.488L778.191 220.668Z" fill="#B6CCFE"/>
<path d="M876.187 85.4937L879.717 50.8861L1037.05 66.9354L1033.52 101.543L876.187 85.4937Z" fill="#CCDBFD"/>
<path d="M891.124 73.275L889.073 40.0172L983.156 34.2172L985.206 67.4751L891.124 73.275Z" fill="#D7E3FC"/>
<path d="M904.932 51.236L902.728 26.9515L966.812 21.1354L969.016 45.42L904.932 51.236Z" fill="#E2EAFC"/>
<path d="M770.863 324.629L777.416 190.657L1107.3 206.793L1100.75 340.766L770.863 324.629Z" fill="#ABC4FF"/>
</g>
<mask id="mask2_34_3318" style="mask-type:alpha" maskUnits="userSpaceOnUse" x="397" y="27" width="300" height="300">
<path d="M397 177.5L547.502 27L697 177.5L547.502 327L397 177.5Z" fill="white"/>
</mask>
<g mask="url(#mask2_34_3318)">
<path d="M525.736 47.6968L525.736 23.3125L575.013 23.3125L575.013 47.6968L525.736 47.6968Z" fill="#E2EAFC"/>
<path d="M496.337 68.371L497.765 35.0807L591.939 39.1212L590.511 72.4116L496.337 68.371Z" fill="#D7E3FC"/>
<path d="M485.204 96.3882L483.976 61.6226L642.029 56.0412L643.257 90.8068L485.204 96.3882Z" fill="#CCDBFD"/>
<path d="M393.928 162.086L400.993 72.3641L700.067 95.9138L693.002 185.636L393.928 162.086Z" fill="#C1D3FE"/>
<path d="M396.107 259.513L389.69 163.035L701.548 142.292L707.965 238.77L396.107 259.513Z" fill="#B6CCFE"/>
<path d="M409.754 333.747L416.116 213.328L676.289 227.073L669.927 347.492L409.754 333.747Z" fill="#ABC4FF"/>
</g>
<mask id="mask3_34_3318" style="mask-type:alpha" maskUnits="userSpaceOnUse" x="590" y="27" width="300" height="300">
<path d="M590 177.5L740.502 27L890 177.5L740.502 327L590 177.5Z" fill="white"/>
</mask>
<g mask="url(#mask3_34_3318)">
<path d="M590 188L590 98L890 98.0001L890 188L590 188Z" fill="#C1D3FE"/>
<path d="M582.959 240.499L588.713 143.98L890.625 161.977L884.871 258.496L582.959 240.499Z" fill="#B6CCFE"/>
<path d="M660.249 106.367L666.051 49.4921L837.052 66.9355L831.251 123.81L660.249 106.367Z" fill="#CCDBFD"/>
<path d="M691.124 73.275L689.074 40.0172L783.156 34.2172L785.206 67.4751L691.124 73.275Z" fill="#D7E3FC"/>
<path d="M707.947 52.7771L711.495 19.8108L782.475 27.45L778.927 60.4163L707.947 52.7771Z" fill="#E2EAFC"/>
<path d="M611.631 341.853L596.986 203.215L892.679 171.979L907.324 310.616L611.631 341.853Z" fill="#ABC4FF"/>
</g>
<mask id="mask4_34_3318" style="mask-type:alpha" maskUnits="userSpaceOnUse" x="212" y="27" width="300" height="300">
<path d="M212 177.5L362.502 27L512 177.5L362.502 327L212 177.5Z" fill="white"/>
</mask>
<g mask="url(#mask4_34_3318)">
<path d="M340.736 47.6968L340.736 23.3125L390.013 23.3125L390.013 47.6968L340.736 47.6968Z" fill="#E2EAFC"/>
<path d="M311.337 68.3709L312.765 35.0806L406.939 39.1212L405.511 72.4115L311.337 68.3709Z" fill="#D7E3FC"/>
<path d="M300.203 96.3882L298.975 61.6227L457.029 56.0413L458.257 90.8068L300.203 96.3882Z" fill="#CCDBFD"/>
<path d="M208.928 162.086L215.993 72.3639L515.067 95.9137L508.002 185.636L208.928 162.086Z" fill="#C1D3FE"/>
<path d="M216.323 253.228L205.173 157.182L515.635 121.139L526.786 217.185L216.323 253.228Z" fill="#B6CCFE"/>
<path d="M225.999 325.42L232.361 205L492.534 218.745L486.172 339.165L225.999 325.42Z" fill="#ABC4FF"/>
</g>
<mask id="mask5_34_3318" style="mask-type:alpha" maskUnits="userSpaceOnUse" x="32" y="27" width="300" height="300">
<path d="M32 177.5L182.502 27L332 177.5L182.502 327L32 177.5Z" fill="white"/>
</mask>
<g mask="url(#mask5_34_3318)">
<path d="M160.393 37.3843L162.184 20.746L211.178 26.0189L209.387 42.6572L160.393 37.3843Z" fill="#E2EAFC"/>
<path d="M132.955 70.5617L131.072 40.0172L225.154 34.2172L227.037 64.7617L132.955 70.5617Z" fill="#D7E3FC"/>
<path d="M118.185 85.4939L121.715 50.8862L279.05 66.9355L275.52 101.543L118.185 85.4939Z" fill="#CCDBFD"/>
<path d="M31.9983 174L31.9983 84.0002L331.998 84.0002L331.998 174L31.9983 174Z" fill="#C1D3FE"/>
<path d="M23.2443 233.036L33.6452 136.906L334.339 169.439L323.938 265.57L23.2443 233.036Z" fill="#B6CCFE"/>
<path d="M70.7378 340.487L61.1977 221.137L333.999 199.331L343.539 318.681L70.7378 340.487Z" fill="#ABC4FF"/>
</g>
</g>
<path d="M937.097 250.474C951.605 250.474 963.055 247.776 971.448 242.381C979.961 236.866 984.217 229.552 984.217 220.439C984.217 214.684 983.138 209.709 980.98 205.512C978.942 201.316 974.686 197.539 968.211 194.182C961.736 190.825 951.785 187.467 938.356 184.11C925.287 180.873 913.897 177.156 904.185 172.96C894.593 168.643 887.1 163.068 881.704 156.234C876.429 149.4 873.791 140.527 873.791 129.616C873.791 118.945 876.788 109.773 882.783 102.1C888.898 94.3062 897.351 88.3712 908.142 84.2947C918.933 80.0982 931.462 78 945.73 78C960.957 78 974.206 80.0383 985.476 84.1148C996.867 88.0715 1006.52 92.9873 1014.43 98.8623L1001.12 119.365C993.929 114.449 986.016 110.433 977.383 107.315C968.751 104.078 958.319 102.459 946.09 102.459C931.222 102.459 920.671 104.797 914.436 109.473C908.202 114.03 905.084 119.964 905.084 127.278C905.084 132.794 906.583 137.41 909.581 141.127C912.698 144.724 917.914 148.021 925.227 151.018C932.541 153.896 942.613 157.073 955.442 160.55C967.791 163.787 978.522 167.684 987.635 172.24C996.867 176.796 1004.06 182.791 1009.22 190.225C1014.37 197.659 1016.95 207.251 1016.95 219.001C1016.95 232.429 1013.11 243.34 1005.44 251.733C997.766 260.006 987.814 266.061 975.585 269.898C963.475 273.615 950.646 275.473 937.097 275.473C919.952 275.473 905.324 273.015 893.214 268.099C881.225 263.063 871.153 257.009 863 249.935L880.265 229.971C887.699 236.086 896.212 241.062 905.804 244.899C915.516 248.616 925.947 250.474 937.097 250.474Z" fill="#F1F0EA"/>
<path d="M757.665 82V247.46H811.08V271.38H669V247.46H727.451V105.92H670.641V82H757.665Z" fill="#F1F0EA"/>
<path d="M475 271.336V81.9566H500.718L503.056 108.214C510.73 98.5027 520.322 91.0689 531.832 85.9133C543.462 80.6378 554.733 78 565.643 78C584.228 78 597.716 82.9158 606.109 92.7475C614.622 102.579 618.878 116.248 618.878 133.753V271.336H588.664V156.054C588.664 143.105 587.944 132.674 586.506 124.76C585.067 116.727 582.069 110.912 577.513 107.315C572.957 103.598 565.883 101.74 556.291 101.74C548.858 101.74 541.843 103.359 535.249 106.596C528.775 109.833 522.959 113.91 517.804 118.825C512.768 123.621 508.572 128.477 505.214 133.393V271.336H475Z" fill="#F1F0EA"/>
<path d="M428.116 229.971C428.116 237.525 429.374 243.04 431.892 246.517C434.41 249.995 438.307 252.572 443.582 254.251L436.209 275.473C428.056 274.394 420.922 271.816 414.807 267.739C408.692 263.543 404.256 257.248 401.498 248.855C394.664 257.608 386.151 264.262 375.96 268.819C365.768 273.255 354.498 275.473 342.148 275.473C323.204 275.473 308.277 270.137 297.366 259.466C286.455 248.795 281 234.647 281 217.022C281 197.479 288.614 182.492 303.841 172.06C319.068 161.629 341.069 156.414 369.845 156.414H397.721V140.587C397.721 126.919 393.705 117.267 385.671 111.632C377.758 105.876 366.727 102.999 352.579 102.999C346.345 102.999 339.031 103.778 330.638 105.337C322.245 106.776 313.133 109.234 303.301 112.711L295.388 89.87C307.018 85.5536 317.929 82.4962 328.12 80.6977C338.312 78.8992 348.023 78 357.255 78C380.875 78 398.561 83.5153 410.311 94.546C422.181 105.457 428.116 120.324 428.116 139.148V229.971ZM349.882 252.452C359.234 252.452 368.166 250.114 376.679 245.438C385.192 240.642 392.206 234.048 397.721 225.655V176.916H370.384C349.522 176.916 334.774 180.513 326.142 187.707C317.629 194.901 313.373 204.553 313.373 216.663C313.373 228.413 316.37 237.345 322.365 243.46C328.48 249.455 337.652 252.452 349.882 252.452Z" fill="#F1F0EA"/>
<path d="M212.714 82V240.985C212.714 262.088 207.978 279.713 198.506 293.861C189.034 308.129 175.305 319.579 157.321 328.212C139.336 336.844 117.574 343.319 92.0357 347.635L87 324.255C105.704 321.138 122.25 316.462 136.638 310.227C151.026 303.992 162.236 295.419 170.27 284.509C178.423 273.718 182.499 259.87 182.499 242.964V105.92H103.495V82H212.714Z" fill="#F1F0EA"/>
</svg>
