<svg width="2191" height="1161" viewBox="0 0 2191 1161" fill="none" xmlns="http://www.w3.org/2000/svg">
<rect width="2191" height="1161" fill="#1E1E1E"/>
<g clip-path="url(#clip0_4_52922)">
<rect width="2191" height="1161" fill="#2D232E"/>
<path d="M365 1019H281.218V783.035H365V1019Z" fill="#ABC4FF"/>
<path d="M278.891 1019H195.109V783.035H278.891V1019Z" fill="#B6CCFE"/>
<path d="M192.782 1019H109V783.035H192.782V1019Z" fill="#C1D3FE"/>
<path d="M365.692 255.36H281.78V120.169H365.692V255.36Z" fill="#ABC4FF"/>
<path d="M279.449 255.36H195.538V120.169H279.449V255.36Z" fill="#B6CCFE"/>
<path d="M193.207 255.36H109.295V120.169H193.207V255.36Z" fill="#C1D3FE"/>
<path d="M402.523 258.335V666.412C402.523 721.185 390.195 769.937 363.147 810.398L363.148 810.399C336.756 850.155 299.13 880.976 252.137 903.533C206.276 925.546 152.002 941.495 89.9873 951.976L54.6289 957.952L47.0781 922.896L35.3408 868.399L27.0645 829.975L65.835 823.513C107.027 816.648 142.564 806.495 172.79 793.397C201.213 781.08 221.682 764.928 235.894 745.625L236.031 745.439L236.172 745.253C249.139 728.091 257.098 704.341 257.098 671.023V389.089H72.9473V258.335H402.523Z" fill="#F1F0EA" stroke="#2D232E" stroke-width="75"/>
<path d="M813 1019H694.115V755H813V1019Z" fill="#ABC4FF"/>
<path d="M691.784 1019H582.223V755H691.784V1019Z" fill="#B6CCFE"/>
<path d="M579.892 1019H468V755H579.892V1019Z" fill="#C1D3FE"/>
<path d="M813.221 271.676H694.346V38.5881H813.221V271.676Z" fill="#ABC4FF"/>
<path d="M692.015 246.037H582.463V38.5881H692.015V246.037Z" fill="#B6CCFE"/>
<path d="M580.132 246.037H468.25V38.5881H580.132V246.037Z" fill="#C1D3FE"/>
<path d="M552.38 113.36C525.892 117.944 497.728 125.738 467.5 136.741V24.603H814.5V262.353C814.5 214.37 796.851 176.472 766 148.66C735.46 120.542 689.496 106.483 628.105 106.483C604.11 106.483 578.868 108.776 552.38 113.36Z" fill="#2D232E"/>
<path d="M641.33 248.162C701.379 248.162 753.403 262.094 790.373 296.62C827.077 330.358 843.997 375.745 843.997 428.191V639.889C843.997 646.756 844.584 651.436 845.258 654.39C845.542 655.633 845.801 656.392 845.948 656.776C846.175 657.003 846.563 657.341 847.204 657.765C848.385 658.546 850.478 659.652 853.919 660.747L890.607 672.42L877.971 708.79L860.784 758.255L850.749 787.135L820.44 783.124C796.439 779.947 774.237 772.165 754.675 759.124L754.465 758.984L754.257 758.841C747.684 754.33 741.772 749.222 736.484 743.598C725.325 751.828 713.228 758.862 700.232 764.671L700.064 764.748L699.895 764.821C670.918 777.434 639.478 783.448 606.117 783.448C554.655 783.448 509.556 768.74 475.516 735.448C441.74 702.415 426.088 659.18 426.088 609.707C426.088 552.646 449.243 505.748 495.634 473.968C539.964 443.601 599.956 430.935 670.675 430.935H698.148C698.035 406.583 691.101 398.31 686.029 394.752L685.767 394.569L685.508 394.38C675.76 387.291 658.877 381.431 630.431 381.431C618.859 381.431 604.203 382.895 586.136 386.25L585.88 386.297L585.624 386.341C568.563 389.266 549.41 394.376 528.072 401.922L492.491 414.506L480.136 378.844L461.69 325.605L449.68 290.938L484.076 278.172C512.901 267.474 540.535 259.673 566.902 255.02C592.555 250.493 617.383 248.162 641.33 248.162ZM671.933 553.724C625.592 553.724 602.559 562.117 592.885 570.126C582.348 579.084 576.545 590.671 576.545 608.868C576.545 629.772 581.717 639.736 586.516 644.796C591.344 649.371 601.64 654.79 624.144 654.79C639.321 654.789 653.902 651.083 668.376 643.167C679.848 636.675 689.737 628.286 698.151 617.739V553.724H671.933Z" fill="#F1F0EA" stroke="#2D232E" stroke-width="75"/>
<path d="M1245 1019H1133.85V813H1245V1019Z" fill="#ABC4FF"/>
<path d="M1131.63 1019H1024.93V813H1131.63V1019Z" fill="#B6CCFE"/>
<path d="M1022.7 1019H916V813H1022.7V1019Z" fill="#C1D3FE"/>
<path d="M1253.76 255.36H1137.21V47.9118H1253.76V255.36Z" fill="#ABC4FF"/>
<path d="M1134.88 255.36H1023V47.9118H1134.88V255.36Z" fill="#B6CCFE"/>
<path d="M1020.67 255.36H908.787V47.9118H1020.67V255.36Z" fill="#C1D3FE"/>
<path d="M970.867 116.719H908V-36H1256.09V241.375C1256.09 199.246 1245.81 166.351 1225.27 142.689C1205.01 119.027 1172.45 107.197 1127.59 107.197C1101.25 107.197 1074.04 113.545 1045.97 126.241C1018.19 138.649 995.034 156.54 976.511 179.913L970.867 116.719Z" fill="#2D232E"/>
<path d="M1123.58 249.168C1172.92 249.168 1217.05 262.287 1246.42 296.695H1246.42C1273.82 328.454 1285.16 370.045 1285.16 416.621V774.812H1139.74V468.603C1139.74 439.488 1138.1 417.682 1135.31 402.369L1135.3 402.32L1135.29 402.272C1132.9 388.926 1128.98 385.198 1128.01 384.432L1127.78 384.245L1127.54 384.056C1126.7 383.366 1120.56 379.503 1101.78 379.503C1090.14 379.503 1079.48 381.982 1069.34 386.945C1057.6 392.836 1047.18 400.167 1037.95 408.968L1037.94 408.975L1037.93 408.982C1031.07 415.515 1025.2 421.902 1020.23 428.122V774.812H874.801V258.391H1006.56L1008.62 281.54C1015.26 277.692 1022.14 274.165 1029.28 270.963V270.962C1060.43 256.831 1091.97 249.168 1123.58 249.168Z" fill="#F1F0EA" stroke="#2D232E" stroke-width="75"/>
<path d="M2076 1019H1959.45L1958.68 719.147H2075.23L2076 1019Z" fill="#ABC4FF"/>
<path d="M1957.11 1019H1845.22L1845.21 719.01H1957.11L1957.11 1019Z" fill="#B6CCFE"/>
<path d="M1842.89 1019H1731V719H1842.89V1019Z" fill="#C1D3FE"/>
<path d="M2076.56 283.331H1960.02V103.853H2076.56V283.331Z" fill="#ABC4FF"/>
<path d="M1957.69 255.36H1845.8V96.8601H1957.69V255.36Z" fill="#B6CCFE"/>
<path d="M1843.47 255.36H1731.59V96.8601H1843.47V255.36Z" fill="#C1D3FE"/>
<path d="M1754.18 167.75C1739.48 186.616 1731 209.468 1731 235.703V-11.3706L2077.09 -11.6719V159.791C2057.68 145.347 2034.01 133.261 2006.07 123.534C1978.43 113.511 1945.93 108.5 1908.58 108.5C1873.58 108.5 1842.85 113.659 1816.38 123.976C1789.91 133.998 1769.18 148.59 1754.18 167.75Z" fill="#2D232E"/>
<path d="M1882.47 248.162C1921.06 248.162 1956.34 253.299 1987.57 264.545C2016.88 274.742 2042.9 287.802 2064.96 304.18L2093.23 325.17L2074.06 354.707L2043.04 402.497L2022.13 434.705L1990.42 413.041C1976.41 403.461 1960.81 395.511 1943.51 389.262L1943.29 389.185L1943.08 389.104C1928.29 383.559 1908.7 380.173 1883.3 380.173C1850.46 380.173 1836.38 385.754 1832.03 389.022L1831.84 389.162L1831.65 389.299C1826.15 393.32 1825.23 396.206 1825.23 400.524C1825.23 405.357 1826.22 407.575 1827.01 408.737C1829.17 410.926 1835.19 415.518 1848.68 421.067C1863.85 427.017 1885.72 433.967 1914.87 441.869C1945.38 449.883 1972.79 459.742 1996.74 471.697H1996.74C2023.16 484.737 2045.14 502.636 2061.26 525.874C2078.76 551.113 2085.97 581.558 2085.97 614.318C2085.97 653.186 2074.64 688.221 2049.32 715.917L2049.23 716.016L2049.14 716.115C2026.24 740.801 1997.15 758.107 1963.28 768.733L1963.17 768.768L1963.06 768.802C1931.03 778.634 1897.39 783.448 1862.34 783.448C1818.98 783.448 1779.82 777.254 1745.95 763.506L1745.75 763.422L1745.54 763.334C1714.65 750.364 1687.6 734.306 1665.06 714.746L1636.78 690.208L1661.27 661.89L1701.51 615.359L1725.45 587.687L1753.7 610.928C1767.77 622.506 1784.14 632.16 1803.07 639.76C1821.06 646.605 1840.71 650.178 1862.34 650.178C1892 650.178 1910.7 644.593 1922.06 637.315C1932.63 630.458 1934.68 624.578 1934.68 617.671C1934.68 608.93 1933.05 603.463 1931.28 600.028L1931.09 599.647L1930.93 599.333C1930.84 599.179 1930.29 598.363 1928.74 596.989C1926.64 595.124 1923.13 592.623 1917.61 589.758C1906.48 583.988 1886.7 577.001 1856.18 569.373H1856.18C1824.26 561.462 1795.7 552.202 1770.76 541.425L1770.5 541.314L1770.24 541.199C1743.52 529.175 1720.81 512.797 1703.8 491.252L1703.67 491.091L1703.55 490.93C1684.98 466.873 1677.29 437.477 1677.29 405.973C1677.29 373.585 1686.57 343.869 1706.19 318.749L1706.22 318.717L1706.24 318.687C1725.33 294.357 1751 276.85 1781.4 265.332C1811.73 253.56 1845.66 248.162 1882.47 248.162Z" fill="#F1F0EA" stroke="#2D232E" stroke-width="75"/>
<path d="M1554 1019H1486.33V737H1554V1019Z" fill="#ABC4FF"/>
<path d="M1484 1019H1418.67V737H1484V1019Z" fill="#B6CCFE"/>
<path d="M1416.33 1019H1351V737H1416.33V1019Z" fill="#C1D3FE"/>
<path d="M1554.44 255.36H1486.85V120.169H1554.44V255.36Z" fill="#ABC4FF"/>
<path d="M1484.51 255.36H1419.25V120.169H1484.51V255.36Z" fill="#B6CCFE"/>
<path d="M1416.92 255.36H1351.65V120.169H1416.92V255.36Z" fill="#C1D3FE"/>
<path d="M1591.7 258.39V644.058H1657.21V774.812H1310.03V644.058H1446.27V389.144H1313.86V258.39H1591.7Z" fill="#F1F0EA" stroke="#2D232E" stroke-width="75"/>
</g>
<defs>
<clipPath id="clip0_4_52922">
<rect width="2191" height="1161" fill="white"/>
</clipPath>
</defs>
</svg>
